<svg xmlns="http://www.w3.org/2000/svg" width="2047" height="1448">
<defs>
</defs>
<path d="M0,1448 C0,1448 0,0 0,0 C0,0 2047,0 2047,0 C2047,0 2047,1448 2047,1448 C2047,1448 0,1448 0,1448 Z M954.175,613.041 C941.703,630.896 925.728,646.108 907.755,657.89 C856.349,691.586 778.616,704.563 716.101,713.303 C716.101,713.303 641.549,723.726 641.549,723.726 C641.549,723.726 708.692,732.403 708.692,732.403 C763.948,739.545 820.259,748.428 871.242,770.672 C892.288,779.935 911.402,791.417 928.558,806.276 C929.099,806.053 929.507,806.692 929.532,807.133 C947.899,823.533 962.088,843.021 972.268,865.788 C984.561,891.997 992.446,919.018 998.618,947.321 C998.618,947.321 1012.66,1033.3 1012.66,1033.3 C1012.66,1033.3 1022.83,1104.43 1022.83,1104.43 C1022.83,1104.43 1032.33,1036.27 1032.33,1036.27 C1032.33,1036.27 1045.66,956.738 1045.66,956.738 C1049.49,933.918 1055.91,912.5 1063.75,890.776 C1070.87,871.024 1079.59,852.655 1091.35,835.446 C1103.24,818.033 1117.94,803.415 1135.14,791.542 C1169.5,767.815 1213.3,755.643 1254.71,746.667 C1254.71,746.667 1333.34,733.355 1333.34,733.355 C1333.34,733.355 1405.46,723.263 1405.46,723.263 C1405.46,723.263 1291.02,708.067 1291.02,708.067 C1243.3,699.526 1193.05,687.666 1150.81,665.208 C1126.52,652.292 1106.63,634.587 1091.27,611.73 C1067.46,576.286 1055.25,534.325 1046.45,492.617 C1035.89,442.59 1030.16,393.176 1024.03,340.661 C1018.77,360.722 1018.51,380.106 1015.74,399.724 C1011.58,429.107 1007.85,457.684 1001.66,486.713 C992.232,530.857 979.789,576.373 954.175,613.041 Z " fill="rgb(254,254,254)"/>
<path d="M1135.14,791.542 C1136.01,789.41 1134.27,788.264 1133.04,790.04 C1132.73,789.043 1131.83,787.853 1131.48,788.082 C1131.12,788.311 1130.85,789.527 1129.76,788.742 C1153.76,748.478 1154.48,700.622 1129.87,659.968 C1130.65,658.094 1133.16,658.572 1135.43,658.39 C1118.55,646.416 1103.9,632.906 1092.06,615.806 C1091.4,614.851 1089.84,615.905 1090,616.515 C1090.1,616.955 1090.24,617.909 1089.05,618.552 C1066.34,604.451 1040.46,598.435 1013.94,600.295 C992.192,602.403 972.858,608.952 955.231,620.638 C955.351,617.13 955.79,614.942 954.175,613.041 C979.789,576.373 992.232,530.857 1001.66,486.713 C1007.85,457.684 1011.58,429.107 1015.74,399.724 C1018.51,380.106 1018.77,360.722 1024.03,340.661 C1030.16,393.176 1035.89,442.59 1046.45,492.617 C1055.25,534.325 1067.46,576.286 1091.27,611.73 C1106.63,634.587 1126.52,652.292 1150.81,665.208 C1193.05,687.666 1243.3,699.526 1291.02,708.067 C1291.02,708.067 1405.46,723.263 1405.46,723.263 C1405.46,723.263 1333.34,733.355 1333.34,733.355 C1333.34,733.355 1254.71,746.667 1254.71,746.667 C1213.3,755.643 1169.5,767.815 1135.14,791.542 Z " fill="rgb(66,58,103)"/>
<path d="M1135.14,791.542 C1117.94,803.415 1103.24,818.033 1091.35,835.446 C1091.35,835.446 1087.57,830.71 1087.57,830.71 C1047.11,854.609 996.411,853.848 956.97,828.884 C957.407,831.075 956.62,832.236 956.083,832.516 C955.594,832.771 954.54,832.581 954.372,832.093 C954.372,832.093 953.716,830.183 953.716,830.183 C953.348,829.112 951.294,827.357 950.398,826.391 C950.398,826.391 933.674,808.35 933.674,808.35 C932.546,807.133 931.528,805.887 929.532,807.133 C929.507,806.692 929.099,806.053 928.558,806.276 C929.915,806.094 929.841,805.115 929.44,805.023 C928.95,804.91 928.529,804.062 928.246,803.83 C928.246,803.83 912.705,791.139 912.705,791.139 C915.518,791.531 917.544,793.003 919.521,791.229 C909.035,775.412 903.34,758.831 900.628,740.516 C900.628,740.516 900.093,707.431 900.093,707.431 C901.1,705.496 901.759,703.133 902.059,700.927 C904.273,684.614 911.28,669.977 919.992,656.226 C917.787,654.258 915.33,655.068 913.8,657.042 C913.8,657.042 911.471,660.046 911.471,660.046 C910.828,658.501 909.598,657.834 907.755,657.89 C925.728,646.108 941.703,630.896 954.175,613.041 C955.79,614.942 955.351,617.13 955.231,620.638 C972.858,608.952 992.192,602.403 1013.94,600.295 C1040.46,598.435 1066.34,604.451 1089.05,618.552 C1090.24,617.909 1090.1,616.955 1090,616.515 C1089.84,615.905 1091.4,614.851 1092.06,615.806 C1103.9,632.906 1118.55,646.416 1135.43,658.39 C1133.16,658.572 1130.65,658.094 1129.87,659.968 C1154.48,700.622 1153.76,748.478 1129.76,788.742 C1130.85,789.527 1131.12,788.311 1131.48,788.082 C1131.83,787.853 1132.73,789.043 1133.04,790.04 C1134.27,788.264 1136.01,789.41 1135.14,791.542 Z M1038.73,811.687 C1051.9,809.067 1064.23,804.065 1075.4,796.37 C1076.33,795.731 1077.93,796.782 1078.99,797.122 C1078.99,797.122 1085.92,791.03 1085.92,791.03 C1087.78,789.39 1089.46,787.713 1091.04,785.924 C1091.04,785.924 1097.05,779.14 1097.05,779.14 C1097.48,778.65 1097.94,777.197 1097.64,776.864 C1097.64,776.864 1095.92,775.007 1095.92,775.007 C1102.08,767.661 1105.68,759.229 1108.46,750.296 C1108.46,750.296 1111.53,737.504 1111.53,737.504 C1112.08,728.589 1112.87,718.772 1111.25,709.99 C1108.91,697.263 1105.02,685.715 1097.77,675.204 C1083.41,654.377 1061.75,639.683 1036.67,636.516 C1028.03,635.426 1018.94,635.649 1010.39,636.532 C997.884,637.822 987.132,643.214 977.288,648.466 C972.678,645.48 968.69,651.366 965.196,653.962 C959.546,658.159 950.652,667.866 950.18,669.745 C949.951,670.66 951.894,672.254 951.342,673.009 C944.179,682.814 937.013,699.149 936.659,710.204 C936.659,710.204 935.22,713.394 935.22,713.394 C934.883,720.465 934.626,728.207 935.611,735.177 C939.806,764.841 957.112,789.596 983.809,803.237 C993.722,808.303 1004.47,811.51 1016.06,812.181 C1020.37,812.431 1024.12,813.917 1028.47,812.428 C1028.47,812.428 1038.73,811.687 1038.73,811.687 Z " fill="rgb(71,63,114)"/>
<path d="M928.558,806.276 C911.402,791.417 892.288,779.935 871.242,770.672 C820.259,748.428 763.948,739.545 708.692,732.403 C708.692,732.403 641.549,723.726 641.549,723.726 C641.549,723.726 716.101,713.303 716.101,713.303 C778.616,704.563 856.349,691.586 907.755,657.89 C909.598,657.834 910.828,658.501 911.471,660.046 C911.471,660.046 913.8,657.042 913.8,657.042 C915.33,655.068 917.787,654.258 919.992,656.226 C911.28,669.977 904.273,684.614 902.059,700.927 C901.759,703.133 901.1,705.496 900.093,707.431 C900.093,707.431 900.628,740.516 900.628,740.516 C903.34,758.831 909.035,775.412 919.521,791.229 C917.544,793.003 915.518,791.531 912.705,791.139 C912.705,791.139 928.246,803.83 928.246,803.83 C928.529,804.062 928.95,804.91 929.44,805.023 C929.841,805.115 929.915,806.094 928.558,806.276 Z " fill="rgb(66,58,103)"/>
<path d="M1091.35,835.446 C1079.59,852.655 1070.87,871.024 1063.75,890.776 C1055.91,912.5 1049.49,933.918 1045.66,956.738 C1045.66,956.738 1032.33,1036.27 1032.33,1036.27 C1032.33,1036.27 1022.83,1104.43 1022.83,1104.43 C1022.83,1104.43 1012.66,1033.3 1012.66,1033.3 C1012.66,1033.3 998.618,947.321 998.618,947.321 C992.446,919.018 984.561,891.997 972.268,865.788 C962.088,843.021 947.899,823.533 929.532,807.133 C931.528,805.887 932.546,807.133 933.674,808.35 C933.674,808.35 950.398,826.391 950.398,826.391 C951.294,827.357 953.348,829.112 953.716,830.183 C953.716,830.183 954.372,832.093 954.372,832.093 C954.54,832.581 955.594,832.771 956.083,832.516 C956.62,832.236 957.407,831.075 956.97,828.884 C996.411,853.848 1047.11,854.609 1087.57,830.71 C1087.57,830.71 1091.35,835.446 1091.35,835.446 Z " fill="rgb(66,58,103)"/>
<path d="M1038.73,811.687 C1038.73,811.687 1028.47,812.428 1028.47,812.428 C1024.12,813.917 1020.37,812.431 1016.06,812.181 C1004.47,811.51 993.722,808.303 983.809,803.237 C957.112,789.596 939.806,764.841 935.611,735.177 C934.626,728.207 934.883,720.465 935.22,713.394 C935.22,713.394 936.659,710.204 936.659,710.204 C937.013,699.149 944.179,682.814 951.342,673.009 C951.894,672.254 949.951,670.66 950.18,669.745 C950.652,667.866 959.546,658.159 965.196,653.962 C968.69,651.366 972.678,645.48 977.288,648.466 C987.132,643.214 997.884,637.822 1010.39,636.532 C1018.94,635.649 1028.03,635.426 1036.67,636.516 C1061.75,639.683 1083.41,654.377 1097.77,675.204 C1105.02,685.715 1108.91,697.263 1111.25,709.99 C1112.87,718.772 1112.08,728.589 1111.53,737.504 C1111.53,737.504 1108.46,750.296 1108.46,750.296 C1105.68,759.229 1102.08,767.661 1095.92,775.007 C1095.92,775.007 1097.64,776.864 1097.64,776.864 C1097.94,777.197 1097.48,778.65 1097.05,779.14 C1097.05,779.14 1091.04,785.924 1091.04,785.924 C1089.46,787.713 1087.78,789.39 1085.92,791.03 C1085.92,791.03 1078.99,797.122 1078.99,797.122 C1077.93,796.782 1076.33,795.731 1075.4,796.37 C1064.23,804.065 1051.9,809.067 1038.73,811.687 Z M1020.39,793.278 C1024.49,794.245 1027.69,794.13 1031.13,793.418 C1031.13,793.418 1045.34,790.476 1045.34,790.476 C1047.35,790.059 1051.39,791.86 1052.81,788.987 C1054.32,785.959 1056.99,784.975 1059.68,783.424 C1075.57,774.276 1086.02,758.544 1091.18,741.558 C1094.02,742.922 1096.13,732.206 1094.05,731.029 C1090.09,728.789 1098.94,718.531 1093.14,712.692 C1093.14,712.692 1090.47,704.504 1090.47,704.504 C1088.43,698.279 1085.43,692.168 1086.15,689.437 C1086.27,688.989 1083.8,688.519 1084.36,688.152 C1084.59,688.009 1084.56,687.431 1084.19,687.228 C1082.72,687.084 1082.3,686.109 1082.01,685.513 C1081.83,685.163 1082.46,684.244 1082.9,683.749 C1082.19,682.212 1079.77,680.862 1077.23,681.869 C1078.5,677.265 1076.6,675.965 1074.44,673.623 C1069.83,668.611 1064.91,669.427 1061.72,664.748 C1061.72,664.748 1059.5,663.927 1059.5,663.927 C1059.16,663.801 1059.71,662.578 1059.35,662.273 C1054.75,660.442 1050.64,656.829 1046.53,657.464 C1044.74,657.742 1042.88,657.767 1040.7,656.761 C1040,656.014 1039.49,654.721 1038.39,654.275 C1036.29,653.419 1035.67,654.854 1033.85,654.851 C1026.74,654.842 1016.61,654.353 1009.81,655.959 C1005.81,654.232 998.379,656.641 992.747,661.082 C982.813,668.916 971.923,675.527 965.122,687.039 C962.633,691.252 960.095,695.999 958.615,700.533 C957.703,703.326 957.817,704.845 955.488,706.824 C952.126,709.682 953.657,715.685 952.633,719.239 C951.194,724.232 952.554,728.099 952.977,733.031 C953.206,735.706 952.519,737.981 956.345,739.045 C954.404,740.14 955.049,741.581 957.165,741.31 C956.813,743.605 955.553,745.208 956.159,747.818 C960.309,749.626 962.792,754.433 961.111,758.806 C962.152,758.42 962.468,758.385 962.911,758.461 C963.271,758.522 964.235,759.486 963.93,759.502 C963.465,759.525 962.676,760.326 962.995,760.996 C964.826,764.842 969.385,764.285 966.897,767.14 C967.946,766.627 969.729,766.835 969.937,767.485 C970.067,767.891 969.671,769.366 971.626,768.804 C972.321,773.83 976.528,775.255 980.067,777.854 C980.763,778.365 981.563,778.373 982.394,778.259 C982.835,778.199 983.018,779.739 984.213,780.46 C982.982,780.476 982.813,781.861 983.486,782.767 C984.701,784.402 987.591,785.38 989.327,786.508 C989.327,786.508 991.524,787.935 991.524,787.935 C991.524,787.935 993.96,786.86 993.96,786.86 C995.404,787.386 997.591,789.092 997.625,791.018 C1002,788.293 1003.93,791.315 1006.61,793.653 C1006.61,793.653 1020.39,793.278 1020.39,793.278 Z " fill="rgb(74,66,124)"/>
<path d="M1020.39,793.278 C1020.39,793.278 1006.61,793.653 1006.61,793.653 C1003.93,791.315 1002,788.293 997.625,791.018 C997.591,789.092 995.404,787.386 993.96,786.86 C993.96,786.86 991.524,787.935 991.524,787.935 C991.524,787.935 989.327,786.508 989.327,786.508 C987.591,785.38 984.701,784.402 983.486,782.767 C982.813,781.861 982.982,780.476 984.213,780.46 C983.018,779.739 982.835,778.199 982.394,778.259 C981.563,778.373 980.763,778.365 980.067,777.854 C976.528,775.255 972.321,773.83 971.626,768.804 C969.671,769.366 970.067,767.891 969.937,767.485 C969.729,766.835 967.946,766.627 966.897,767.14 C969.385,764.285 964.826,764.842 962.995,760.996 C962.676,760.326 963.465,759.525 963.93,759.502 C964.235,759.486 963.271,758.522 962.911,758.461 C962.468,758.385 962.152,758.42 961.111,758.806 C962.792,754.433 960.309,749.626 956.159,747.818 C955.553,745.208 956.813,743.605 957.165,741.31 C955.049,741.581 954.404,740.14 956.345,739.045 C952.519,737.981 953.206,735.706 952.977,733.031 C952.554,728.099 951.194,724.232 952.633,719.239 C953.657,715.685 952.126,709.682 955.488,706.824 C957.817,704.845 957.703,703.326 958.615,700.533 C960.095,695.999 962.633,691.252 965.122,687.039 C971.923,675.527 982.813,668.916 992.747,661.082 C998.379,656.641 1005.81,654.232 1009.81,655.959 C1016.61,654.353 1026.74,654.842 1033.85,654.851 C1035.67,654.854 1036.29,653.419 1038.39,654.275 C1039.49,654.721 1040,656.014 1040.7,656.761 C1042.88,657.767 1044.74,657.742 1046.53,657.464 C1050.64,656.829 1054.75,660.442 1059.35,662.273 C1059.71,662.578 1059.16,663.801 1059.5,663.927 C1059.5,663.927 1061.72,664.748 1061.72,664.748 C1064.91,669.427 1069.83,668.611 1074.44,673.623 C1076.6,675.965 1078.5,677.265 1077.23,681.869 C1079.77,680.862 1082.19,682.212 1082.9,683.749 C1082.46,684.244 1081.83,685.163 1082.01,685.513 C1082.3,686.109 1082.72,687.084 1084.19,687.228 C1084.56,687.431 1084.59,688.009 1084.36,688.152 C1083.8,688.519 1086.27,688.989 1086.15,689.437 C1085.43,692.168 1088.43,698.279 1090.47,704.504 C1090.47,704.504 1093.14,712.692 1093.14,712.692 C1098.94,718.531 1090.09,728.789 1094.05,731.029 C1096.13,732.206 1094.02,742.922 1091.18,741.558 C1086.02,758.544 1075.57,774.276 1059.68,783.424 C1056.99,784.975 1054.32,785.959 1052.81,788.987 C1051.39,791.86 1047.35,790.059 1045.34,790.476 C1045.34,790.476 1031.13,793.418 1031.13,793.418 C1027.69,794.13 1024.49,794.245 1020.39,793.278 Z " fill="rgb(79,71,137)"/>
</svg>