<svg xmlns="http://www.w3.org/2000/svg" width="2047" height="1448">
<defs>
</defs>
<path d="M0,1448 C0,1448 0,0 0,0 C0,0 2047,0 2047,0 C2047,0 2047,1448 2047,1448 C2047,1448 0,1448 0,1448 Z M1017.63,465.031 C1017.63,465.031 1017.01,527.644 1017.01,527.644 C1017.01,527.644 1016.98,530.999 1016.98,530.999 C1016.98,530.999 1016.77,567.03 1016.77,567.03 C1016.77,567.03 1016.68,584.95 1016.68,584.95 C1016.68,584.95 1016.82,600.102 1016.82,600.102 C1016.82,600.102 1016.82,606.846 1016.82,606.846 C1014.97,608.046 1016.44,610.261 1016.44,611.938 C1016.44,611.938 1016.37,686.726 1016.37,686.726 C1016.37,686.726 1007.56,689.406 1007.56,689.406 C1007.56,689.406 962.755,612.256 962.755,612.256 C962.755,612.256 924.951,550.678 924.951,550.678 C924.951,550.678 953.133,604.991 953.133,604.991 C953.133,604.991 1001.98,692.588 1001.98,692.588 C1001.98,692.588 998.708,695.033 998.708,695.033 C998.708,695.033 941.215,642.737 941.215,642.737 C941.215,642.737 930.318,632.898 930.318,632.898 C930.318,632.898 916.07,620.046 916.07,620.046 C916.07,620.046 803.844,520.307 803.844,520.307 C803.844,520.307 791.347,509.15 791.347,509.15 C790.771,509.629 790.767,510.389 791.462,511.039 C792.06,511.598 792.656,512.206 793.454,512.266 C793.454,512.266 863.979,579.957 863.979,579.957 C863.979,579.957 910.583,624.275 910.583,624.275 C910.583,624.275 925.589,638.365 925.589,638.365 C925.589,638.365 935.853,648.195 935.853,648.195 C935.853,648.195 992.832,701.394 992.832,701.394 C992.832,701.394 991.03,703.532 991.03,703.532 C990.379,704.304 989.276,703.061 988.349,702.512 C988.349,702.512 914.98,659.073 914.98,659.073 C914.98,659.073 851.746,623.788 851.746,623.788 C851.746,623.788 905.837,659.17 905.837,659.17 C905.837,659.17 987.863,709.68 987.863,709.68 C987.863,709.68 985.707,716.789 985.707,716.789 C985.707,716.789 908.109,716.915 908.109,716.915 C908.109,716.915 892.907,716.964 892.907,716.964 C892.907,716.964 874.071,717.059 874.071,717.059 C874.071,717.059 853.997,717.232 853.997,717.232 C853.997,717.232 831.973,717.314 831.973,717.314 C831.973,717.314 811.663,717.412 811.663,717.412 C811.663,717.412 743.018,718.191 743.018,718.191 C743.018,718.191 601.14,721.218 601.14,721.218 C601.14,721.218 570.477,723.721 570.477,723.721 C581.085,726.144 590.493,726.16 600.758,726.38 C600.758,726.38 743.08,729.428 743.08,729.428 C743.08,729.428 813.999,730.125 813.999,730.125 C813.999,730.125 832.019,730.238 832.019,730.238 C832.019,730.238 854.022,730.35 854.022,730.35 C854.022,730.35 873.1,730.657 873.1,730.657 C873.1,730.657 893.025,730.647 893.025,730.647 C893.025,730.647 908.929,730.742 908.929,730.742 C908.929,730.742 985.8,730.843 985.8,730.843 C986.503,734.378 987.474,736.961 988.828,739.865 C988.828,739.865 861.753,814.48 861.753,814.48 C857.668,816.879 853.882,818.621 850.925,822.556 C850.925,822.556 905.028,793.965 905.028,793.965 C905.028,793.965 991.013,745.899 991.013,745.899 C992.15,745.264 994.063,746.972 994.147,748.325 C994.147,748.325 950.12,795.618 950.12,795.618 C950.12,795.618 939.73,806.845 939.73,806.845 C939.73,806.845 926.773,820.857 926.773,820.857 C926.773,820.857 912.951,835.858 912.951,835.858 C912.951,835.858 895.799,855.182 895.799,855.182 C895.799,855.182 881.891,869.802 881.891,869.802 C881.891,869.802 819.106,938.909 819.106,938.909 C819.106,938.909 806.957,951.476 806.957,951.476 C806.768,952.025 806.932,952.582 807.321,952.951 C807.321,952.951 819.859,940.065 819.859,940.065 C819.859,940.065 825.973,933.746 825.973,933.746 C825.973,933.746 886.114,872.96 886.114,872.96 C886.114,872.96 903.168,855.349 903.168,855.349 C903.168,855.349 918.192,840.021 918.192,840.021 C918.192,840.021 933.236,824.382 933.236,824.382 C933.236,824.382 944.277,813.15 944.277,813.15 C944.277,813.15 955.27,801.482 955.27,801.482 C955.27,801.482 998.92,757.339 998.92,757.339 C998.92,757.339 954.058,833.994 954.058,833.994 C954.058,833.994 918.857,897.27 918.857,897.27 C918.857,897.27 962.211,830.196 962.211,830.196 C962.211,830.196 1006.76,757.696 1006.76,757.696 C1006.76,757.696 1016.43,760.934 1016.43,760.934 C1016.43,760.934 1016.29,825.892 1016.29,825.892 C1016.29,825.892 1016.14,840.802 1016.14,840.802 C1016.29,841.02 1016.63,841.13 1016.81,841.118 C1016.81,841.118 1016.79,848.976 1016.79,848.976 C1016.79,848.976 1016.69,867.088 1016.69,867.088 C1016.69,867.088 1016.81,886.033 1016.81,886.033 C1016.81,886.033 1016.95,911.224 1016.95,911.224 C1016.95,911.224 1017.49,968.968 1017.49,968.968 C1017.49,968.968 1020.55,1137.25 1020.55,1137.25 C1020.8,1150.82 1020.81,1163.53 1023.54,1176.67 C1026.09,1162.11 1026.18,1149.2 1026.43,1135.22 C1026.43,1135.22 1029.42,968.973 1029.42,968.973 C1029.42,968.973 1029.96,905.044 1029.96,905.044 C1029.96,905.044 1030.21,867.075 1030.21,867.075 C1030.21,867.075 1030.28,848.999 1030.28,848.999 C1030.28,848.999 1030.34,834.086 1030.34,834.086 C1030.34,834.086 1030.4,819.05 1030.4,819.05 C1030.4,819.05 1030.55,761.01 1030.55,761.01 C1030.55,761.01 1039.46,758.294 1039.46,758.294 C1039.46,758.294 1083.25,833.746 1083.25,833.746 C1083.25,833.746 1122.15,897.134 1122.15,897.134 C1122.15,897.134 1087.93,831.993 1087.93,831.993 C1087.93,831.993 1045.33,755.657 1045.33,755.657 C1044.78,754.672 1047.78,752.235 1048.7,753.073 C1048.7,753.073 1098.65,798.419 1098.65,798.419 C1098.65,798.419 1110.67,809.338 1110.67,809.338 C1110.67,809.338 1122.75,820.235 1122.75,820.235 C1122.75,820.235 1138.53,834.4 1138.53,834.4 C1138.53,834.4 1241.65,926.088 1241.65,926.088 C1241.65,926.088 1250.94,934.159 1250.94,934.159 C1251.13,930.991 1248.61,930.451 1246.69,928.997 C1246.69,928.997 1142.1,828.744 1142.1,828.744 C1142.1,828.744 1130.47,817.735 1130.47,817.735 C1130.47,817.735 1115.41,803.595 1115.41,803.595 C1115.41,803.595 1104.13,792.881 1104.13,792.881 C1104.13,792.881 1067.34,757.826 1067.34,757.826 C1067.34,757.826 1180.9,823.834 1180.9,823.834 C1184.77,826.083 1187.86,828.427 1192.31,828.718 C1192.31,828.718 1117.79,781.249 1117.79,781.249 C1117.79,781.249 1056.12,743.487 1056.12,743.487 C1058.61,739.386 1060.14,735.623 1061.17,730.884 C1061.17,730.884 1140.98,730.685 1140.98,730.685 C1140.98,730.685 1155.09,730.709 1155.09,730.709 C1155.09,730.709 1174.98,730.612 1174.98,730.612 C1174.98,730.612 1195.06,730.332 1195.06,730.332 C1195.06,730.332 1217.01,730.173 1217.01,730.173 C1217.01,730.173 1233.82,729.649 1233.82,729.649 C1233.82,729.649 1305.97,729.408 1305.97,729.408 C1305.97,729.408 1442.54,726.504 1442.54,726.504 C1454.04,726.259 1464.74,726.36 1476.53,723.652 C1476.53,723.652 1428.28,720.614 1428.28,720.614 C1428.28,720.614 1305.95,718.181 1305.95,718.181 C1305.95,718.181 1237.44,717.434 1237.44,717.434 C1237.44,717.434 1217.05,717.326 1217.05,717.326 C1217.05,717.326 1195.02,717.217 1195.02,717.217 C1195.02,717.217 1174.9,717.039 1174.9,717.039 C1174.9,717.039 1156.09,717.008 1156.09,717.008 C1156.09,717.008 1140,716.864 1140,716.864 C1140,716.864 1061.16,716.827 1061.16,716.827 C1059.83,710.112 1056.86,704.529 1052.62,699.236 C1052.62,699.236 1106.33,641.701 1106.33,641.701 C1107.01,641.457 1107.62,640.935 1107.85,640.114 C1108.2,638.833 1109.53,638.104 1110.17,636.966 C1111.85,636.448 1112.92,634.445 1114.01,633.277 C1114.01,633.277 1128.11,618.074 1128.11,618.074 C1128.11,618.074 1143.21,601.789 1143.21,601.789 C1143.21,601.789 1158.2,585.395 1158.2,585.395 C1158.2,585.395 1223.84,513.04 1223.84,513.04 C1223.84,513.04 1235.93,500.081 1235.93,500.081 C1237.45,498.457 1238.52,496.671 1240.03,495.528 C1239.62,495.18 1239.4,494.839 1239.46,494.928 C1237.24,495.257 1236.24,497.361 1235.05,499.396 C1235.05,499.396 1153.85,581.838 1153.85,581.838 C1153.85,581.838 1136.66,599.567 1136.66,599.567 C1136.66,599.567 1123.74,612.782 1123.74,612.782 C1123.74,612.782 1109.96,626.89 1109.96,626.89 C1109.96,626.89 1100.71,636.746 1100.71,636.746 C1100.71,636.746 1046.52,692.31 1046.52,692.31 C1046.52,692.31 1119.26,567.387 1119.26,567.387 C1119.26,567.387 1124.84,556.173 1124.84,556.173 C1124.62,556.032 1124.2,556.019 1123.89,556.421 C1123.89,556.421 1115.49,568.732 1115.49,568.732 C1115.49,568.732 1040.26,689.894 1040.26,689.894 C1040.26,689.894 1030.48,686.819 1030.48,686.819 C1030.48,686.819 1030.34,613.962 1030.34,613.962 C1030.34,613.962 1030.31,599.944 1030.31,599.944 C1030.31,599.944 1030.2,584.995 1030.2,584.995 C1030.2,584.995 1030.1,565.091 1030.1,565.091 C1030.1,565.091 1029.99,541.979 1029.99,541.979 C1029.99,541.979 1029.9,528.702 1029.9,528.702 C1029.9,528.702 1029.29,464.966 1029.29,464.966 C1029.29,464.966 1026.44,312.746 1026.44,312.746 C1026.17,298.253 1026.09,284.69 1023.43,270.498 C1020.86,284.512 1020.8,297.126 1020.54,310.723 C1020.54,310.723 1017.63,465.031 1017.63,465.031 Z " fill="rgb(254,254,254)"/>
<path d="M1016.82,606.846 C1016.82,606.846 1018.54,614.187 1018.54,614.187 C1018.56,613.884 1019.1,613.134 1019.95,613.565 C1018.88,615.68 1019.48,617.579 1019.62,619.821 C1019.68,620.798 1019.86,622.415 1019.67,623.313 C1019.27,625.17 1019.46,627.036 1019.69,629.057 C1019.69,629.057 1020.15,633.08 1020.15,633.08 C1020.15,633.08 1019.81,683.892 1019.81,683.892 C1019.8,684.622 1018.55,685.73 1020.01,687.605 C1018.55,688.781 1016.17,690.347 1014.39,691.202 C1012.49,688.939 1012.74,692.305 1012.56,691.788 C1012.35,691.161 1010.53,690.78 1010.14,692.659 C1008.85,692.756 1007.02,691.845 1004.27,692.844 C1004.88,695.541 1002.71,697.662 999.641,697.79 C998.415,697.841 996.742,696.701 995.794,698.568 C995.324,699.496 995.312,700.716 995.474,701.71 C996.001,704.962 991.794,706.259 991.154,708.028 C990.452,709.969 990.72,713.784 989.73,715.837 C989.276,717.596 987.752,719.382 986.126,719.473 C986.126,719.473 975.004,720.09 975.004,720.09 C975.004,720.09 947.947,719.864 947.947,719.864 C946.3,719.85 945.309,719.625 942.921,719.693 C942.921,719.693 928.502,720.103 928.502,720.103 C928.502,720.103 918.988,719.91 918.988,719.91 C918.988,719.91 915.789,720.141 915.789,720.141 C915.789,720.141 908.775,719.988 908.775,719.988 C909.067,718.869 908.775,717.917 908.109,716.915 C908.109,716.915 985.707,716.789 985.707,716.789 C985.707,716.789 987.863,709.68 987.863,709.68 C987.863,709.68 905.837,659.17 905.837,659.17 C905.837,659.17 851.746,623.788 851.746,623.788 C851.746,623.788 914.98,659.073 914.98,659.073 C914.98,659.073 988.349,702.512 988.349,702.512 C989.276,703.061 990.379,704.304 991.03,703.532 C991.03,703.532 992.832,701.394 992.832,701.394 C992.832,701.394 935.853,648.195 935.853,648.195 C937.848,646.368 938.951,644.366 941.215,642.737 C941.215,642.737 998.708,695.033 998.708,695.033 C998.708,695.033 1001.98,692.588 1001.98,692.588 C1001.98,692.588 953.133,604.991 953.133,604.991 C953.133,604.991 924.951,550.678 924.951,550.678 C924.951,550.678 962.755,612.256 962.755,612.256 C962.755,612.256 1007.56,689.406 1007.56,689.406 C1007.56,689.406 1016.37,686.726 1016.37,686.726 C1016.37,686.726 1016.44,611.938 1016.44,611.938 C1016.44,610.261 1014.97,608.046 1016.82,606.846 Z " fill="rgb(53,73,120)"/>
<path d="M914.81,727.388 C914.81,727.388 919.173,727.404 919.173,727.404 C919.173,727.404 927.736,727.636 927.736,727.636 C927.736,727.636 957.914,727.392 957.914,727.392 C961.649,727.362 965.324,726.74 969.074,727.36 C981.094,729.346 991.266,724.67 989.738,731.191 C989.705,731.333 991.833,741.598 992.39,741.986 C993.428,742.71 995.893,742.949 996.543,743.906 C997.657,745.548 997.845,748.808 997.1,751.298 C993.026,754.408 989.419,758.392 985.807,762.229 C985.807,762.229 971.885,777.021 971.885,777.021 C970.142,778.873 968.867,780.964 966.961,782.466 C966.961,782.466 967.812,783.319 967.812,783.319 C972.383,779.12 976.816,774.416 981.191,769.789 C981.191,769.789 997.953,752.061 997.953,752.061 C999.614,751.113 1001.18,751.213 1004.32,751.348 C1003.78,752.815 1004.13,754.388 1005.53,754.781 C1006.98,755.189 1008.54,754.922 1009.52,754.06 C1009.52,754.06 1012.54,756.531 1012.54,756.531 C1012.5,756.634 1013.74,755.684 1014.45,755.97 C1014.96,756.18 1015.25,757.458 1015.79,757.513 C1016.54,757.589 1017.96,757.825 1019.99,757.058 C1018.36,759.077 1019.74,761.113 1019.75,763.043 C1019.75,763.043 1019.98,800.084 1019.98,800.084 C1019.98,800.084 1019.71,805.016 1019.71,805.016 C1019.6,807.021 1018.17,809.666 1020.01,811.899 C1019.31,812.991 1019.61,813.929 1019.44,814.992 C1019.17,816.804 1019.07,818.156 1019.61,819.992 C1019.4,820.044 1019.35,820.208 1019.45,820.334 C1015.59,825.861 1017.55,832.761 1017.14,837.366 C1017.14,837.366 1016.81,841.118 1016.81,841.118 C1016.63,841.13 1016.29,841.02 1016.14,840.802 C1016.14,840.802 1016.29,825.892 1016.29,825.892 C1016.29,825.892 1016.43,760.934 1016.43,760.934 C1016.43,760.934 1006.76,757.696 1006.76,757.696 C1006.76,757.696 962.211,830.196 962.211,830.196 C962.211,830.196 918.857,897.27 918.857,897.27 C918.857,897.27 954.058,833.994 954.058,833.994 C954.058,833.994 998.92,757.339 998.92,757.339 C998.92,757.339 955.27,801.482 955.27,801.482 C953.597,801.126 954.055,800.115 954.023,799.592 C953.988,799.005 952.45,799.733 952.146,800.102 C952.146,800.102 950.711,799.927 950.711,799.927 C951.379,799.511 951.593,798.971 951.523,798.477 C951.478,798.167 950.955,798.337 949.673,797.612 C949.546,797.573 950.972,796.769 951.198,796.519 C951.394,796.302 950.946,795.611 950.12,795.618 C950.12,795.618 994.147,748.325 994.147,748.325 C994.063,746.972 992.15,745.264 991.013,745.899 C991.013,745.899 905.028,793.965 905.028,793.965 C905.028,793.965 850.925,822.556 850.925,822.556 C853.882,818.621 857.668,816.879 861.753,814.48 C861.753,814.48 988.828,739.865 988.828,739.865 C987.474,736.961 986.503,734.378 985.8,730.843 C985.8,730.843 908.929,730.742 908.929,730.742 C908.418,729.521 908.886,728.336 908.991,726.998 C910.953,728.007 912.848,727.381 914.81,727.388 Z " fill="rgb(53,73,120)"/>
<path d="M1077.97,727.405 C1082.93,727.283 1088.09,727.392 1093.06,727.4 C1093.06,727.4 1120.61,727.446 1120.61,727.446 C1120.61,727.446 1129,727.478 1129,727.478 C1129,727.478 1132.99,727.349 1132.99,727.349 C1135.52,727.267 1138.05,728.098 1140.46,727.093 C1139.77,728.585 1140.84,729.448 1140.98,730.685 C1140.98,730.685 1061.17,730.884 1061.17,730.884 C1060.14,735.623 1058.61,739.386 1056.12,743.487 C1056.12,743.487 1117.79,781.249 1117.79,781.249 C1117.79,781.249 1192.31,828.718 1192.31,828.718 C1187.86,828.427 1184.77,826.083 1180.9,823.834 C1180.9,823.834 1067.34,757.826 1067.34,757.826 C1067.34,757.826 1104.13,792.881 1104.13,792.881 C1102.16,794.784 1099.72,795.761 1098.65,798.419 C1098.65,798.419 1048.7,753.073 1048.7,753.073 C1047.78,752.235 1044.78,754.672 1045.33,755.657 C1045.33,755.657 1087.93,831.993 1087.93,831.993 C1087.93,831.993 1122.15,897.134 1122.15,897.134 C1122.15,897.134 1083.25,833.746 1083.25,833.746 C1083.25,833.746 1039.46,758.294 1039.46,758.294 C1039.46,758.294 1030.55,761.01 1030.55,761.01 C1030.55,761.01 1030.4,819.05 1030.4,819.05 C1029.09,818.654 1028.34,818.906 1027.24,819.476 C1027.33,817.789 1028.06,816.523 1027.03,814.989 C1026.5,814.199 1027.12,812.89 1027.4,812.137 C1028.13,810.162 1027.69,808.068 1027.54,806.299 C1027.54,806.299 1027.12,801.062 1027.12,801.062 C1027.12,801.062 1027.09,763.043 1027.09,763.043 C1027.09,763.043 1027.71,760.257 1027.71,760.257 C1028.04,758.819 1028.26,757.421 1029,757.331 C1029,757.331 1032.57,756.895 1032.57,756.895 C1032.57,756.895 1035.46,756.107 1035.46,756.107 C1035.46,756.107 1037.04,754.625 1037.04,754.625 C1038.05,755.871 1040.44,756.075 1041.37,755.358 C1041.93,754.927 1045.17,746.49 1050.57,749.781 C1052.26,750.812 1054.7,752.899 1055.93,754.223 C1057.23,755.624 1058.12,756.046 1059.49,757.32 C1059.49,757.32 1069.75,766.829 1069.75,766.829 C1069.99,766.613 1070.25,766.101 1070,765.495 C1070,765.495 1063.85,759.092 1063.85,759.092 C1062.91,758.112 1062.55,757.192 1062.32,756.495 C1061.92,755.279 1062.63,754.404 1063.82,753.752 C1062.69,751.335 1060.84,750.86 1058.86,749.761 C1057.11,748.784 1053.9,747.259 1053.45,745.48 C1052.64,742.29 1053.7,739.274 1055.34,738.14 C1058.15,734.413 1055.99,730.236 1059.17,727.868 C1059.17,727.868 1077.97,727.405 1077.97,727.405 Z " fill="rgb(53,73,120)"/>
<path d="M1100.71,636.746 C1101.96,637.967 1102.77,640.938 1101.03,641.675 C1100.03,642.098 1099.12,642.968 1099.22,643.504 C1099.71,646.157 1103.17,639.708 1106.33,641.701 C1106.33,641.701 1052.62,699.236 1052.62,699.236 C1056.86,704.529 1059.83,710.112 1061.16,716.827 C1061.16,716.827 1140,716.864 1140,716.864 C1139.9,717.905 1140.02,718.901 1140.34,719.953 C1140.34,719.953 1133.08,720.137 1133.08,720.137 C1131.56,720.176 1129.98,719.833 1128.49,720.149 C1125.64,720.751 1122.77,719.987 1119.91,719.974 C1119.91,719.974 1102,719.889 1102,719.889 C1102,719.889 1071.99,720.115 1071.99,720.115 C1071.99,720.115 1059.36,719.736 1059.36,719.736 C1057.99,718.437 1056.68,715.693 1055.97,712.932 C1054.38,706.737 1049.21,702.856 1049.3,700.469 C1049.42,697.568 1049.64,697.816 1053.02,694.175 C1053.02,694.175 1067.67,678.407 1067.67,678.407 C1067.67,678.407 1082.09,662.955 1082.09,662.955 C1082.09,662.955 1089.2,655.197 1089.2,655.197 C1089.2,655.197 1095.99,648.485 1095.99,648.485 C1096.21,647.913 1096.01,647.428 1095.78,647.175 C1095.78,647.175 1087.82,654.807 1087.82,654.807 C1084.25,658.232 1081.01,661.544 1077.2,665.537 C1077.2,665.537 1055.16,688.612 1055.16,688.612 C1053.83,690.002 1052.92,692.036 1051.86,693.012 C1051.86,693.012 1047.52,696.976 1047.52,696.976 C1045.22,695.39 1044.3,696.414 1042.21,696.814 C1043.07,694.289 1042.56,693.26 1041.45,692.599 C1040.03,691.751 1038.32,692.199 1036.74,693.144 C1036.74,693.144 1035.38,691.287 1035.38,691.287 C1034.94,690.685 1033.88,691.47 1033.38,691.466 C1033.38,691.466 1027.45,689.256 1027.45,689.256 C1028.23,686.976 1027.14,685.927 1027.14,684.897 C1027.14,684.897 1027,633.102 1027,633.102 C1027,633.102 1027.27,628.737 1027.27,628.737 C1027.38,626.882 1027.1,625.058 1027.13,623.175 C1027.13,623.175 1027.19,619.957 1027.19,619.957 C1027.23,617.763 1027.16,615.727 1027.09,613.536 C1028.16,613.608 1029.13,614.173 1030.34,613.962 C1030.34,613.962 1030.48,686.819 1030.48,686.819 C1030.48,686.819 1040.26,689.894 1040.26,689.894 C1040.26,689.894 1115.49,568.732 1115.49,568.732 C1115.49,568.732 1123.89,556.421 1123.89,556.421 C1124.2,556.019 1124.62,556.032 1124.84,556.173 C1124.84,556.173 1119.26,567.387 1119.26,567.387 C1119.26,567.387 1046.52,692.31 1046.52,692.31 C1046.52,692.31 1100.71,636.746 1100.71,636.746 Z " fill="rgb(53,73,120)"/>
<path d="M1020.63,967.39 C1020.63,967.39 1020.78,981.579 1020.78,981.579 C1020.78,981.579 1021.08,985.025 1021.08,985.025 C1021.35,988.027 1020.52,990.885 1020.67,993.985 C1020.67,993.985 1021.08,1001.97 1021.08,1001.97 C1021.08,1001.97 1021.76,1014.04 1021.76,1014.04 C1021.76,1014.04 1021.43,1034.99 1021.43,1034.99 C1021.4,1036.8 1020.67,1039.33 1021.47,1040.91 C1022.42,1042.81 1021.28,1044.08 1021.41,1046.02 C1021.41,1046.02 1021.92,1053.48 1021.92,1053.48 C1020.88,1058.9 1021.59,1064.5 1021.72,1069.99 C1021.72,1069.99 1022.91,1072.89 1022.91,1072.89 C1022.91,1072.89 1023.14,1119.07 1023.14,1119.07 C1023.46,1119.12 1023.86,1118.85 1023.87,1118.49 C1023.87,1118.49 1024.5,1070.1 1024.5,1070.1 C1024.57,1064.72 1026.59,1059.11 1025.02,1053.42 C1025.02,1053.42 1025.37,1045.25 1025.37,1045.25 C1025.46,1043.11 1025.56,1042.32 1025.57,1040.95 C1025.57,1040.95 1025.63,1035.01 1025.63,1035.01 C1025.63,1035.01 1025.32,1025.13 1025.32,1025.13 C1025.32,1025.13 1025.27,1007.12 1025.27,1007.12 C1025.27,1005.08 1025.73,1003.44 1025.12,1001.92 C1026.14,999.371 1025.76,996.55 1025.89,993.845 C1025.89,993.845 1026.13,988.895 1026.13,988.895 C1026.13,988.895 1026.88,986.558 1026.88,986.558 C1026.88,986.558 1025.94,985.082 1025.94,985.082 C1025.94,985.082 1026.16,981.626 1026.16,981.626 C1026.43,977.363 1026.37,973.237 1026.04,968.993 C1026.04,968.993 1029.42,968.973 1029.42,968.973 C1029.42,968.973 1026.43,1135.22 1026.43,1135.22 C1026.18,1149.2 1026.09,1162.11 1023.54,1176.67 C1020.81,1163.53 1020.8,1150.82 1020.55,1137.25 C1020.55,1137.25 1017.49,968.968 1017.49,968.968 C1017.49,968.968 1020.63,967.39 1020.63,967.39 Z " fill="rgb(32,42,71)"/>
<path d="M1029.29,464.966 C1029.29,464.966 1026.18,464.849 1026.18,464.849 C1027.38,462.552 1026.61,460.76 1026.06,458.04 C1026.2,456.896 1025.9,455.993 1025.99,454.947 C1025.99,454.947 1026.31,451.103 1026.31,451.103 C1025.02,446.852 1025.8,442.369 1025.54,438.023 C1025.54,438.023 1025.2,432.199 1025.2,432.199 C1025.2,432.199 1025.29,426.845 1025.29,426.845 C1025.29,426.845 1025.32,407.878 1025.32,407.878 C1025.33,405.23 1025.97,402.695 1025.12,400.478 C1024.55,398.98 1025.39,397.382 1025.41,395.88 C1025.41,395.88 1025.57,382.088 1025.57,382.088 C1025.57,381.477 1024.26,380.361 1024.25,379.745 C1024.25,379.745 1023.99,347.006 1023.99,347.006 C1023.99,347.006 1023.76,329.954 1023.76,329.954 C1023.53,329.966 1023.2,330.099 1023.02,330.497 C1023.02,330.497 1022.98,347.009 1022.98,347.009 C1022.98,347.009 1022.43,375.173 1022.43,375.173 C1022.43,375.173 1021.89,381.989 1021.89,381.989 C1021.52,386.586 1021.18,391.326 1021.66,395.979 C1021.82,397.529 1021.79,398.894 1021.76,400.502 C1021.76,400.502 1021.66,407.92 1021.66,407.92 C1021.66,407.92 1021.67,426.835 1021.67,426.835 C1021.67,426.835 1021.9,432.242 1021.9,432.242 C1021.9,432.242 1021.66,437.957 1021.66,437.957 C1021.51,438.352 1021.14,439.342 1021.99,440.203 C1020.33,443.697 1020.88,448.278 1021.41,451.59 C1021.18,452.207 1020.88,453.094 1020.88,453.825 C1020.88,453.825 1020.9,465.046 1020.9,465.046 C1020.9,465.046 1017.63,465.031 1017.63,465.031 C1017.63,465.031 1020.54,310.723 1020.54,310.723 C1020.8,297.126 1020.86,284.512 1023.43,270.498 C1026.09,284.69 1026.17,298.253 1026.44,312.746 C1026.44,312.746 1029.29,464.966 1029.29,464.966 Z " fill="rgb(32,42,71)"/>
<path d="M743.018,718.191 C743.195,719.338 743.501,720.359 743.469,721.455 C743.469,721.455 725.944,721.475 725.944,721.475 C724.117,721.477 722.8,721.82 720.721,721.816 C720.721,721.816 709.001,721.79 709.001,721.79 C709.001,721.79 702.108,722.128 702.108,722.128 C698.158,722.322 693.919,722.281 689.734,722.412 C689.734,722.412 660.979,723.314 660.979,723.314 C662.233,723.921 664.363,724.714 665.392,724.729 C665.392,724.729 701.565,725.253 701.565,725.253 C701.565,725.253 709.064,725.223 709.064,725.223 C709.064,725.223 720.674,725.928 720.674,725.928 C720.674,725.928 727,726.001 727,726.001 C730.591,726.043 734.138,727.119 737.943,726.625 C737.943,726.625 742.972,725.973 742.972,725.973 C743.701,727.246 743.574,728.074 743.08,729.428 C743.08,729.428 600.758,726.38 600.758,726.38 C590.493,726.16 581.085,726.144 570.477,723.721 C570.477,723.721 601.14,721.218 601.14,721.218 C601.14,721.218 743.018,718.191 743.018,718.191 Z M659.038,723.72 C659.027,723.536 658.894,723.189 658.5,723.005 C658.5,723.005 645.962,723.28 645.962,723.28 C645.973,723.464 646.106,723.81 646.5,723.995 C646.5,723.995 659.038,723.72 659.038,723.72 Z " fill="rgb(32,42,71)"/>
<path d="M1305.97,729.408 C1305.83,728.22 1305.86,727.12 1306,726.017 C1307.69,726.315 1309.82,726.486 1311.95,726.394 C1311.95,726.394 1321.95,725.964 1321.95,725.964 C1321.95,725.964 1328.02,726.093 1328.02,726.093 C1328.02,726.093 1339.94,725.185 1339.94,725.185 C1339.94,725.185 1347.42,725.206 1347.42,725.206 C1347.42,725.206 1382.61,724.739 1382.61,724.739 C1383.62,724.726 1385.78,723.918 1387.02,723.301 C1387.02,723.301 1356.32,722.476 1356.32,722.476 C1353.2,722.392 1349.86,721.667 1346.96,722.006 C1344.64,722.276 1342.41,721.63 1339.86,721.663 C1339.86,721.663 1328.4,721.811 1328.4,721.811 C1328.4,721.811 1321.99,722.017 1321.99,722.017 C1318.87,722.117 1315.66,721.599 1312,721.662 C1312,721.662 1306.2,721.762 1306.2,721.762 C1305.59,720.401 1305.24,719.21 1305.95,718.181 C1305.95,718.181 1428.28,720.614 1428.28,720.614 C1428.28,720.614 1476.53,723.652 1476.53,723.652 C1464.74,726.36 1454.04,726.259 1442.54,726.504 C1442.54,726.504 1305.97,729.408 1305.97,729.408 Z " fill="rgb(32,42,71)"/>
<path d="M916.07,620.046 C914.098,621.072 913.506,622.951 914.515,624.714 C914.515,624.714 910.583,624.275 910.583,624.275 C910.583,624.275 863.979,579.957 863.979,579.957 C863.979,579.957 793.454,512.266 793.454,512.266 C792.656,512.206 792.06,511.598 791.462,511.039 C790.767,510.389 790.771,509.629 791.347,509.15 C791.347,509.15 803.844,520.307 803.844,520.307 C803.844,520.307 916.07,620.046 916.07,620.046 Z " fill="rgb(46,61,101)"/>
<path d="M1138.53,834.4 C1138.53,834.4 1142.1,828.744 1142.1,828.744 C1142.1,828.744 1246.69,928.997 1246.69,928.997 C1248.61,930.451 1251.13,930.991 1250.94,934.159 C1250.94,934.159 1241.65,926.088 1241.65,926.088 C1241.65,926.088 1138.53,834.4 1138.53,834.4 Z " fill="rgb(44,58,97)"/>
<path d="M1158.2,585.395 C1157.44,585.212 1155.29,585.057 1154.58,584.577 C1153.98,584.165 1154.44,582.892 1153.85,581.838 C1153.85,581.838 1235.05,499.396 1235.05,499.396 C1236.24,497.361 1237.24,495.257 1239.46,494.928 C1239.4,494.839 1239.62,495.18 1240.03,495.528 C1238.52,496.671 1237.45,498.457 1235.93,500.081 C1235.93,500.081 1223.84,513.04 1223.84,513.04 C1223.84,513.04 1158.2,585.395 1158.2,585.395 Z " fill="rgb(42,55,92)"/>
<path d="M886.114,872.96 C886.114,872.96 825.973,933.746 825.973,933.746 C825.973,933.746 819.859,940.065 819.859,940.065 C819.859,940.065 807.321,952.951 807.321,952.951 C806.932,952.582 806.768,952.025 806.957,951.476 C806.957,951.476 819.106,938.909 819.106,938.909 C819.106,938.909 881.891,869.802 881.891,869.802 C883.462,871.241 884.221,872.152 886.114,872.96 Z " fill="rgb(39,50,84)"/>
<path d="M1257.02,726.28 C1257.02,726.28 1271.44,726.243 1271.44,726.243 C1273.33,726.239 1275.8,726.687 1277.52,726.231 C1277.52,726.231 1281.71,726.194 1281.71,726.194 C1286.6,726.152 1294.24,726.869 1299.35,726.28 C1300.28,726.174 1301.79,727.495 1303.05,726.354 C1303.66,725.8 1305.16,725.869 1306,726.017 C1305.86,727.12 1305.83,728.22 1305.97,729.408 C1305.97,729.408 1233.82,729.649 1233.82,729.649 C1233.82,729.649 1241.78,727.933 1241.78,727.933 C1241.69,727.221 1241.83,726.845 1242,726.504 C1242.36,725.784 1242.7,726.237 1243,726.238 C1243,726.238 1257.02,726.28 1257.02,726.28 Z " fill="rgb(39,50,84)"/>
<path d="M745.7,726.401 C745.7,726.401 749.039,726.105 749.039,726.105 C754.978,727.29 760.962,726.454 766.981,726.094 C768.068,726.029 769.081,726.023 770.066,726.329 C772.462,727.073 775.191,726.452 777.651,726.427 C777.651,726.427 791.736,726.287 791.736,726.287 C793.689,726.268 796.543,726.506 798.798,726.407 C798.798,726.407 805.994,726.091 805.994,726.091 C806.017,726.436 806.232,726.928 806.531,727 C806.835,727.073 807.543,727.029 807.999,726.972 C807.999,726.972 808.027,728.495 808.027,728.495 C809.993,728.212 812.761,728.369 813.999,730.125 C813.999,730.125 743.08,729.428 743.08,729.428 C743.574,728.074 743.701,727.246 742.972,725.973 C744.004,725.839 744.785,726.482 745.7,726.401 Z " fill="rgb(39,50,84)"/>
<path d="M1029.96,905.044 C1029.96,905.044 1029.42,968.973 1029.42,968.973 C1029.42,968.973 1026.04,968.993 1026.04,968.993 C1025.92,967.438 1026.24,965.543 1026.59,963.929 C1026.55,963.14 1025.98,962.105 1026.19,960.985 C1027.03,956.476 1026.22,951.661 1026.37,947.037 C1026.37,947.037 1026.56,941.041 1026.56,941.041 C1026.56,941.041 1026.28,935.893 1026.28,935.893 C1026.28,935.893 1026.55,927.213 1026.55,927.213 C1026.55,927.213 1026.23,922.99 1026.23,922.99 C1026.23,922.99 1026.29,909.992 1026.29,909.992 C1026.29,909.62 1025.81,909.254 1026.6,908.69 C1029.92,906.818 1025.96,903.163 1029.01,902.979 C1028.87,903.497 1028.46,904.109 1028.55,904.499 C1028.64,904.889 1029.58,905.224 1029.96,905.044 Z " fill="rgb(39,50,84)"/>
<path d="M1020.9,465.046 C1020.9,466.145 1021.08,467.99 1020.84,468.965 C1020.48,474.233 1020.11,479.646 1020.73,484.609 C1020.95,486.419 1021.49,489.223 1020.72,490.972 C1019.68,493.352 1020.67,494.855 1020.83,497.056 C1021.05,499.966 1020.63,502.535 1020.79,506.13 C1020.79,506.13 1021.03,511.391 1021.03,511.391 C1019.9,513.993 1020.42,521.746 1020.87,522.967 C1021.2,523.833 1021.15,524.667 1020.38,525.259 C1019.6,525.867 1019.43,526.234 1019.1,526.795 C1018.57,527.712 1019.46,529.342 1019.72,529.84 C1019.08,531.183 1018.09,531.069 1017.62,530.016 C1018.79,529.012 1018.17,527.443 1017.01,527.644 C1017.01,527.644 1017.63,465.031 1017.63,465.031 C1017.63,465.031 1020.9,465.046 1020.9,465.046 Z " fill="rgb(39,50,84)"/>
<path d="M1019.65,908.282 C1019.65,908.282 1019.94,910.008 1019.94,910.008 C1019.94,910.008 1020.73,919.764 1020.73,919.764 C1020.86,921.382 1020.85,921.94 1020.94,922.817 C1020.94,922.817 1020.49,935.499 1020.49,935.499 C1020.49,935.499 1020.59,940.492 1020.59,940.492 C1020.64,942.461 1019.73,945.146 1021.16,947.034 C1020.77,948.005 1020.21,949.308 1020.28,950.952 C1020.28,950.952 1020.74,961.031 1020.74,961.031 C1020.78,961.98 1021.3,963.116 1020.8,963.99 C1020.09,965.227 1020.62,966.197 1020.63,967.39 C1020.63,967.39 1017.49,968.968 1017.49,968.968 C1017.49,968.968 1016.95,911.224 1016.95,911.224 C1018.13,911.39 1019.31,910.27 1018.03,908.757 C1017.74,908.389 1019.21,907.71 1019.65,908.282 Z " fill="rgb(39,50,84)"/>
<path d="M1029.29,464.966 C1029.29,464.966 1029.9,528.702 1029.9,528.702 C1030.18,529.172 1030.23,529.796 1029.92,530.271 C1029.61,530.746 1029.02,530.951 1028.49,530.783 C1026.73,529.802 1028.62,527.844 1027.93,526.705 C1027.61,526.171 1026.82,525.863 1025.98,525.9 C1026.31,525.367 1026.73,525.203 1026.85,524.503 C1027.03,523.441 1026.32,523.332 1026.23,523.04 C1026.23,523.04 1026.14,510.844 1026.14,510.844 C1026.14,510.844 1026.15,496.944 1026.15,496.944 C1026.15,495.276 1027.19,492.958 1026.5,491.007 C1025.77,488.935 1026.12,486.796 1026.16,484.631 C1026.16,484.631 1026.46,468.992 1026.46,468.992 C1026.48,467.825 1025.56,466.033 1026.18,464.849 C1026.18,464.849 1029.29,464.966 1029.29,464.966 Z " fill="rgb(39,50,84)"/>
<path d="M1305.95,718.181 C1305.24,719.21 1305.59,720.401 1306.2,721.762 C1305.07,721.781 1304.08,722.122 1302.98,721.689 C1301.81,721.222 1300.15,721.052 1298.95,721.782 C1298.95,721.782 1281.74,721.547 1281.74,721.547 C1281.22,720.151 1278.96,720.399 1277.7,720.953 C1275.63,720.217 1273.39,720.931 1271.48,720.908 C1271.48,720.908 1257.05,720.73 1257.05,720.73 C1257.05,720.73 1242.99,720.88 1242.99,720.88 C1242.99,720.88 1241,721.018 1241,721.018 C1240.64,718.873 1237.6,718.415 1235.01,719.188 C1235.12,717.278 1236.79,717.767 1237.44,717.434 C1237.44,717.434 1305.95,718.181 1305.95,718.181 Z " fill="rgb(39,50,84)"/>
<path d="M811.663,717.412 C812.722,718.339 814.237,717.447 814,718.473 C813.681,719.848 808.695,717.686 808.002,721.01 C808.002,721.01 805.963,720.802 805.963,720.802 C805.963,720.802 791.948,720.785 791.948,720.785 C791.948,720.785 777.711,720.436 777.711,720.436 C777.711,720.436 771.486,720.742 771.486,720.742 C771.486,720.742 766.894,720.827 766.894,720.827 C766.258,720.839 765.447,719.587 764.551,720.653 C764.262,720.998 764.142,721.632 763.255,721.646 C763.255,721.646 748.997,721.869 748.997,721.869 C748.997,721.869 745.722,721.706 745.722,721.706 C745.722,721.706 743.469,721.455 743.469,721.455 C743.501,720.359 743.195,719.338 743.018,718.191 C743.018,718.191 811.663,717.412 811.663,717.412 Z " fill="rgb(39,50,84)"/>
<path d="M933.236,824.382 C933.236,824.382 918.192,840.021 918.192,840.021 C917.319,837.524 915.101,837.124 912.951,835.858 C912.951,835.858 926.773,820.857 926.773,820.857 C926.773,820.857 933.236,824.382 933.236,824.382 Z " fill="rgb(46,61,101)"/>
<path d="M1019.87,547.1 C1019.78,548.481 1020.57,549.632 1020.23,551.133 C1019.38,554.893 1019.26,558.567 1020.59,562.91 C1020.59,562.91 1026.72,562.908 1026.72,562.908 C1027.53,559.356 1026.26,555.47 1026.63,552.704 C1026.63,552.704 1027.24,548.146 1027.24,548.146 C1027.89,548.289 1028.84,547.841 1028.83,547.313 C1028.83,547.313 1028.78,544.872 1028.78,544.872 C1028.75,543.664 1028.75,542.22 1029.99,541.979 C1029.99,541.979 1030.1,565.091 1030.1,565.091 C1028.9,565.546 1027.87,565.729 1026.62,565.718 C1027.45,565.458 1027.07,563.173 1026.46,563.451 C1023.52,564.806 1020.75,563.172 1020,564.488 C1019.46,565.454 1019.95,566.809 1019.97,567.478 C1019.97,567.478 1016.77,567.03 1016.77,567.03 C1016.77,567.03 1016.98,530.999 1016.98,530.999 C1018.07,531.093 1018.13,531.858 1018.06,532.936 C1018.06,532.936 1018.01,546.8 1018.01,546.8 C1018.68,547.145 1019.54,547.075 1019.87,547.1 Z " fill="rgb(44,58,97)"/>
<path d="M1158.2,585.395 C1158.2,585.395 1143.21,601.789 1143.21,601.789 C1143.21,601.789 1140.35,602.242 1140.35,602.242 C1138.93,602.695 1137.86,600.554 1136.66,599.567 C1136.66,599.567 1153.85,581.838 1153.85,581.838 C1154.44,582.892 1153.98,584.165 1154.58,584.577 C1155.29,585.057 1157.44,585.212 1158.2,585.395 Z " fill="rgb(44,58,97)"/>
<path d="M903.168,855.349 C903.168,855.349 886.114,872.96 886.114,872.96 C884.221,872.152 883.462,871.241 881.891,869.802 C881.891,869.802 895.799,855.182 895.799,855.182 C895.799,855.182 901.17,850.995 901.17,850.995 C901.713,853.538 901.869,854.556 903.168,855.349 Z " fill="rgb(42,55,92)"/>
<path d="M1128.11,618.074 C1128.11,618.074 1114.01,633.277 1114.01,633.277 C1113.79,633.193 1113.17,633.1 1112.24,632.516 C1113.39,632.326 1114.65,630.321 1113.97,628.917 C1113.45,627.842 1111.8,627.661 1109.96,626.89 C1109.96,626.89 1123.74,612.782 1123.74,612.782 C1124.85,614.962 1125.92,616.814 1128.11,618.074 Z " fill="rgb(47,64,106)"/>
<path d="M1130.47,817.735 C1130.47,817.735 1142.1,828.744 1142.1,828.744 C1142.1,828.744 1138.53,834.4 1138.53,834.4 C1138.53,834.4 1122.75,820.235 1122.75,820.235 C1125.14,818.112 1127.81,816.311 1130.47,817.735 Z " fill="rgb(46,61,101)"/>
<path d="M1143.21,601.789 C1143.21,601.789 1128.11,618.074 1128.11,618.074 C1125.92,616.814 1124.85,614.962 1123.74,612.782 C1123.74,612.782 1136.66,599.567 1136.66,599.567 C1137.86,600.554 1138.93,602.695 1140.35,602.242 C1140.35,602.242 1143.21,601.789 1143.21,601.789 Z " fill="rgb(46,61,101)"/>
<path d="M944.277,813.15 C944.277,813.15 933.236,824.382 933.236,824.382 C933.236,824.382 926.773,820.857 926.773,820.857 C926.773,820.857 939.73,806.845 939.73,806.845 C939.73,806.845 940.73,809.689 940.73,809.689 C941.052,810.832 942.737,811.248 943.287,810.85 C943.704,810.548 944.12,812.75 944.277,813.15 Z " fill="rgb(47,64,106)"/>
<path d="M1115.41,803.595 C1112.68,804.237 1111.18,806.685 1110.67,809.338 C1110.67,809.338 1098.65,798.419 1098.65,798.419 C1099.72,795.761 1102.16,794.784 1104.13,792.881 C1104.13,792.881 1115.41,803.595 1115.41,803.595 Z " fill="rgb(49,67,111)"/>
<path d="M1114.01,633.277 C1112.92,634.445 1111.85,636.448 1110.17,636.966 C1109.61,637.141 1108.59,637.82 1108.06,638.369 C1107.65,638.792 1106.47,639.277 1107.85,640.114 C1107.62,640.935 1107.01,641.457 1106.33,641.701 C1103.17,639.708 1099.71,646.157 1099.22,643.504 C1099.12,642.968 1100.03,642.098 1101.03,641.675 C1102.77,640.938 1101.96,637.967 1100.71,636.746 C1100.71,636.746 1109.96,626.89 1109.96,626.89 C1111.8,627.661 1113.45,627.842 1113.97,628.917 C1114.65,630.321 1113.39,632.326 1112.24,632.516 C1113.17,633.1 1113.79,633.193 1114.01,633.277 Z " fill="rgb(49,67,111)"/>
<path d="M950.711,799.927 C950.711,799.927 946.003,804.505 946.003,804.505 C945.773,805.066 945.979,805.571 946.24,805.825 C948.542,804.345 950.357,802.19 952.146,800.102 C952.45,799.733 953.988,799.005 954.023,799.592 C954.055,800.115 953.597,801.126 955.27,801.482 C955.27,801.482 944.277,813.15 944.277,813.15 C944.12,812.75 943.704,810.548 943.287,810.85 C942.737,811.248 941.052,810.832 940.73,809.689 C940.73,809.689 939.73,806.845 939.73,806.845 C939.73,806.845 950.12,795.618 950.12,795.618 C950.946,795.611 951.394,796.302 951.198,796.519 C950.972,796.769 949.546,797.573 949.673,797.612 C950.955,798.337 951.478,798.167 951.523,798.477 C951.593,798.971 951.379,799.511 950.711,799.927 Z " fill="rgb(49,67,111)"/>
<path d="M941.215,642.737 C938.951,644.366 937.848,646.368 935.853,648.195 C935.853,648.195 925.589,638.365 925.589,638.365 C926.699,635.692 928.474,634.767 930.318,632.898 C930.318,632.898 941.215,642.737 941.215,642.737 Z " fill="rgb(49,67,111)"/>
<path d="M853.997,717.232 C853.997,717.232 854.155,720.681 854.155,720.681 C854.155,720.681 851.303,721.3 851.303,721.3 C850.063,720.101 849.174,720.396 847.902,720.42 C847.902,720.42 835.553,720.652 835.553,720.652 C834.717,720.668 833.158,721.106 832.398,720.784 C832.175,719.747 831.84,718.572 831.973,717.314 C831.973,717.314 853.997,717.232 853.997,717.232 Z " fill="rgb(44,58,97)"/>
<path d="M1217.05,717.326 C1217.01,718.446 1216.88,719.637 1217.41,720.574 C1215.89,720.375 1213.98,720.817 1212.38,720.688 C1208.32,720.362 1204.18,720.189 1200.16,720.706 C1199.17,720.833 1198.05,721.262 1197.25,720.583 C1196.38,719.845 1195.89,720.491 1195.48,720.939 C1194.94,719.707 1195.05,718.49 1195.02,717.217 C1195.02,717.217 1217.05,717.326 1217.05,717.326 Z " fill="rgb(44,58,97)"/>
<path d="M831.973,717.314 C831.84,718.572 832.175,719.747 832.398,720.784 C831.511,720.409 830.12,720.477 829.28,720.532 C829.28,720.532 823.056,720.939 823.056,720.939 C823.056,720.939 809.471,720.839 809.471,720.839 C809.471,720.839 808.002,721.01 808.002,721.01 C808.695,717.686 813.681,719.848 814,718.473 C814.237,717.447 812.722,718.339 811.663,717.412 C811.663,717.412 831.973,717.314 831.973,717.314 Z " fill="rgb(42,55,92)"/>
<path d="M1237.44,717.434 C1236.79,717.767 1235.12,717.278 1235.01,719.188 C1237.6,718.415 1240.64,718.873 1241,721.018 C1241,721.018 1238.92,720.843 1238.92,720.843 C1238.92,720.843 1230.27,720.614 1230.27,720.614 C1228.17,720.558 1227.17,720.931 1225.94,720.674 C1223.74,720.213 1221.3,720.668 1219.01,720.782 C1219.01,720.782 1217.41,720.574 1217.41,720.574 C1216.88,719.637 1217.01,718.446 1217.05,717.326 C1217.05,717.326 1237.44,717.434 1237.44,717.434 Z " fill="rgb(42,55,92)"/>
<path d="M1195.02,717.217 C1195.05,718.49 1194.94,719.707 1195.48,720.939 C1192.64,719.925 1189.77,720.637 1187.03,720.673 C1187.03,720.673 1177.71,720.795 1177.71,720.795 C1177.71,720.795 1175.03,720.803 1175.03,720.803 C1175.03,720.803 1174.9,717.039 1174.9,717.039 C1174.9,717.039 1195.02,717.217 1195.02,717.217 Z " fill="rgb(46,61,101)"/>
<path d="M874.071,717.059 C874.071,717.059 874.057,720.884 874.057,720.884 C874.057,720.884 870.379,720.886 870.379,720.886 C870.379,720.886 861.734,720.544 861.734,720.544 C861.734,720.544 854.155,720.681 854.155,720.681 C854.155,720.681 853.997,717.232 853.997,717.232 C853.997,717.232 874.071,717.059 874.071,717.059 Z " fill="rgb(46,61,101)"/>
<path d="M1159.51,727.274 C1159.9,727.431 1160.68,728.034 1161.48,727.876 C1161.93,727.786 1162.67,727.357 1162.33,726.431 C1163.76,728.357 1164.74,727.256 1165.95,727.232 C1168.96,727.171 1171.99,727.916 1174.85,727.139 C1174.85,727.139 1174.98,730.612 1174.98,730.612 C1174.98,730.612 1155.09,730.709 1155.09,730.709 C1156.21,729.793 1156.04,728.328 1155.59,727.098 C1156.83,727.967 1158.18,727.461 1159.51,727.274 Z " fill="rgb(47,64,106)"/>
<path d="M881.902,727.222 C883.013,726.983 884.444,728.618 885.911,727.017 C886.326,726.564 887.562,727.176 888.077,727.361 C889.251,727.671 891.136,727.182 892.449,727.151 C893.139,727.971 893.166,728.42 893.088,729.455 C893.088,729.455 893.025,730.647 893.025,730.647 C893.025,730.647 873.1,730.657 873.1,730.657 C874.349,729.678 873.894,728.437 873.912,727.163 C876.498,727.085 879.149,727.814 881.902,727.222 Z " fill="rgb(47,64,106)"/>
<path d="M892.907,716.964 C892.606,717.983 893.581,719.404 892.33,720.731 C891.256,720.483 889.198,720.699 888.042,720.691 C887.501,720.688 886.769,721.318 885.907,720.973 C884.552,720.43 882.867,720.662 881.614,720.978 C879.235,719.864 876.349,720.59 874.057,720.884 C874.057,720.884 874.071,717.059 874.071,717.059 C874.071,717.059 892.907,716.964 892.907,716.964 Z " fill="rgb(47,64,106)"/>
<path d="M1174.9,717.039 C1174.9,717.039 1175.03,720.803 1175.03,720.803 C1173.15,720.809 1169.78,720.38 1165.66,720.719 C1165.37,720.57 1164.99,720.012 1164.48,720.236 C1164.48,720.236 1163.03,720.864 1163.03,720.864 C1162.31,721.179 1161.64,720.947 1160.95,720.677 C1159.34,720.052 1157.42,720.524 1155.67,720.612 C1156.32,719.339 1156.52,718.241 1156.09,717.008 C1156.09,717.008 1174.9,717.039 1174.9,717.039 Z " fill="rgb(47,64,106)"/>
<path d="M1030.21,867.075 C1030.21,867.075 1029.96,905.044 1029.96,905.044 C1029.58,905.224 1028.64,904.889 1028.55,904.499 C1028.46,904.109 1028.87,903.497 1029.01,902.979 C1029.01,902.979 1028.94,886.202 1028.94,886.202 C1028.46,885.86 1027.41,885.76 1027.03,885.79 C1027.05,884.378 1026.96,883.244 1026.93,881.798 C1026.93,881.798 1026.71,872.648 1026.71,872.648 C1026.68,871.503 1027.87,870.023 1027.03,868.589 C1026.79,868.169 1027.08,867.213 1027.07,866.726 C1028.19,867.436 1028.92,867.49 1030.21,867.075 Z " fill="rgb(44,58,97)"/>
<path d="M1029.9,528.702 C1029.9,528.702 1029.99,541.979 1029.99,541.979 C1028.75,542.22 1028.75,543.664 1028.78,544.872 C1028.78,544.872 1028.83,547.313 1028.83,547.313 C1028.84,547.841 1027.89,548.289 1027.24,548.146 C1027.44,546.641 1027.24,545.924 1026.66,544.716 C1026,543.329 1026.4,541.556 1026.39,540.018 C1026.39,540.018 1026.37,527.105 1026.37,527.105 C1026.14,526.879 1025.79,526.21 1025.98,525.9 C1026.82,525.863 1027.61,526.171 1027.93,526.705 C1028.62,527.844 1026.73,529.802 1028.49,530.783 C1029.02,530.951 1029.61,530.746 1029.92,530.271 C1030.23,529.796 1030.18,529.172 1029.9,528.702 Z " fill="rgb(42,55,92)"/>
<path d="M1020.08,885.977 C1019.79,887.105 1019.87,888.262 1020.29,889.409 C1018.36,890.818 1020.13,892.771 1020.11,894.346 C1020.11,894.346 1019.96,906.964 1019.96,906.964 C1019.95,907.38 1019.59,907.93 1019.65,908.282 C1019.21,907.71 1017.74,908.389 1018.03,908.757 C1019.31,910.27 1018.13,911.39 1016.95,911.224 C1016.95,911.224 1016.81,886.033 1016.81,886.033 C1016.81,886.033 1020.08,885.977 1020.08,885.977 Z " fill="rgb(42,55,92)"/>
<path d="M1177.98,727.245 C1177.98,727.245 1186.18,727.41 1186.18,727.41 C1186.18,727.41 1195,726.99 1195,726.99 C1195,726.99 1195.06,730.332 1195.06,730.332 C1195.06,730.332 1174.98,730.612 1174.98,730.612 C1174.98,730.612 1174.85,727.139 1174.85,727.139 C1175.81,726.88 1177.01,727.225 1177.98,727.245 Z " fill="rgb(46,61,101)"/>
<path d="M861.767,727.388 C864.522,727.445 867.342,727.36 870.102,727.277 C870.102,727.277 873.912,727.163 873.912,727.163 C873.894,728.437 874.349,729.678 873.1,730.657 C873.1,730.657 854.022,730.35 854.022,730.35 C853.889,729.117 854.365,728.23 854.556,727.239 C854.556,727.239 861.767,727.388 861.767,727.388 Z " fill="rgb(46,61,101)"/>
<path d="M836.738,727.49 C836.738,727.49 847.809,727.133 847.809,727.133 C847.809,727.133 852.011,727.079 852.011,727.079 C852.011,727.079 854.556,727.239 854.556,727.239 C854.365,728.23 853.889,729.117 854.022,730.35 C854.022,730.35 832.019,730.238 832.019,730.238 C832.019,730.238 832.003,727.003 832.003,727.003 C832.003,727.003 836.738,727.49 836.738,727.49 Z " fill="rgb(44,58,97)"/>
<path d="M823.052,727.573 C824.823,728.069 827.958,727.301 829.911,727.157 C829.911,727.157 832.003,727.003 832.003,727.003 C832.003,727.003 832.019,730.238 832.019,730.238 C832.019,730.238 813.999,730.125 813.999,730.125 C812.761,728.369 809.993,728.212 808.027,728.495 C808.027,728.495 807.999,726.972 807.999,726.972 C808.501,727.029 809.005,726.962 809.509,726.787 C814.629,728.439 819.521,726.583 823.052,727.573 Z " fill="rgb(42,55,92)"/>
<path d="M1197.4,727.226 C1198.43,727.329 1199.23,727.219 1200.31,727.226 C1200.31,727.226 1212.3,727.301 1212.3,727.301 C1212.3,727.301 1216.99,726.995 1216.99,726.995 C1216.99,726.995 1217.01,730.173 1217.01,730.173 C1217.01,730.173 1195.06,730.332 1195.06,730.332 C1195.06,730.332 1195,726.99 1195,726.99 C1195,726.99 1197.4,727.226 1197.4,727.226 Z " fill="rgb(44,58,97)"/>
<path d="M1219.03,727.184 C1221,727.367 1223.05,727.318 1225.02,727.285 C1225.02,727.285 1238.97,727.057 1238.97,727.057 C1239.95,727.041 1240.92,726.975 1241.78,727.933 C1241.78,727.933 1233.82,729.649 1233.82,729.649 C1233.82,729.649 1217.01,730.173 1217.01,730.173 C1217.01,730.173 1216.99,726.995 1216.99,726.995 C1216.99,726.995 1219.03,727.184 1219.03,727.184 Z " fill="rgb(42,55,92)"/>
<path d="M895.991,727.131 C898.704,728.187 901.185,727.66 903.937,727.289 C905.056,727.139 906.619,727.227 907.727,727.46 C908.037,727.52 908.686,727.256 908.991,726.998 C908.886,728.336 908.418,729.521 908.929,730.742 C908.929,730.742 893.025,730.647 893.025,730.647 C893.025,730.647 893.088,729.455 893.088,729.455 C893.166,728.42 893.139,727.971 892.449,727.151 C893.543,727.125 894.886,726.7 895.991,727.131 Z " fill="rgb(49,67,111)"/>
<path d="M1144.52,727.14 C1147.15,727.155 1150.12,728.626 1152.49,726.473 C1153.33,727.075 1154.77,726.931 1155.59,727.098 C1156.04,728.328 1156.21,729.793 1155.09,730.709 C1155.09,730.709 1140.98,730.685 1140.98,730.685 C1140.84,729.448 1139.77,728.585 1140.46,727.093 C1140.63,727.304 1140.86,727.207 1140.99,727.121 C1140.99,727.121 1144.52,727.14 1144.52,727.14 Z " fill="rgb(49,67,111)"/>
<path d="M1030.2,584.995 C1030.2,584.995 1026.95,584.683 1026.95,584.683 C1026.96,583.72 1027.07,582.447 1027.06,581.511 C1027.06,581.511 1026.94,573.518 1026.94,573.518 C1026.9,570.882 1027.59,568.364 1026.62,565.718 C1027.87,565.729 1028.9,565.546 1030.1,565.091 C1030.1,565.091 1030.2,584.995 1030.2,584.995 Z " fill="rgb(46,61,101)"/>
<path d="M1156.09,717.008 C1156.52,718.241 1156.32,719.339 1155.67,720.612 C1154.68,720.662 1153.98,720.888 1152.7,720.79 C1152.7,720.79 1145.34,720.228 1145.34,720.228 C1143.66,720.1 1142.64,719.81 1141.02,719.918 C1140.8,719.754 1140.53,719.769 1140.34,719.953 C1140.02,718.901 1139.9,717.905 1140,716.864 C1140,716.864 1156.09,717.008 1156.09,717.008 Z " fill="rgb(49,67,111)"/>
<path d="M1019.4,866.239 C1019.4,866.239 1019.8,869.018 1019.8,869.018 C1019.8,869.018 1020.07,871.887 1020.07,871.887 C1020.4,875.32 1019.01,878.737 1020.17,882.115 C1020.63,883.434 1020.42,884.699 1020.08,885.977 C1020.08,885.977 1016.81,886.033 1016.81,886.033 C1016.81,886.033 1016.69,867.088 1016.69,867.088 C1017.08,866.954 1018.08,867.328 1018.49,867.567 C1018.83,867.767 1019.53,866.824 1019.4,866.239 Z " fill="rgb(44,58,97)"/>
<path d="M908.109,716.915 C908.775,717.917 909.067,718.869 908.775,719.988 C908.335,719.979 907.674,720.053 907.35,719.82 C906.902,719.499 905.381,719.669 904.657,719.774 C904.098,719.855 903.02,719.467 903.72,721.005 C901.23,720.123 898.521,720.118 895.869,720.396 C894.556,720.534 893.696,721.047 892.33,720.731 C893.581,719.404 892.606,717.983 892.907,716.964 C892.907,716.964 908.109,716.915 908.109,716.915 Z " fill="rgb(49,67,111)"/>
<path d="M1030.28,848.999 C1030.28,848.999 1030.21,867.075 1030.21,867.075 C1028.92,867.49 1028.19,867.436 1027.07,866.726 C1027.07,866.726 1026.84,859.208 1026.84,859.208 C1026.84,859.208 1027.23,852.787 1027.23,852.787 C1027.23,852.787 1027.05,849.15 1027.05,849.15 C1027.05,849.15 1030.28,848.999 1030.28,848.999 Z " fill="rgb(46,61,101)"/>
<path d="M1019.97,567.478 C1019.97,567.478 1020.16,573.457 1020.16,573.457 C1020.22,575.604 1019.49,578.597 1019.66,581.003 C1019.66,581.003 1019.94,585.061 1019.94,585.061 C1019.94,585.061 1016.68,584.95 1016.68,584.95 C1016.68,584.95 1016.77,567.03 1016.77,567.03 C1016.77,567.03 1019.97,567.478 1019.97,567.478 Z " fill="rgb(46,61,101)"/>
<path d="M1019.9,849.061 C1019.9,849.061 1019.68,852.801 1019.68,852.801 C1019.68,852.801 1019.82,858.794 1019.82,858.794 C1019.82,858.794 1019.4,866.239 1019.4,866.239 C1019.53,866.824 1018.83,867.767 1018.49,867.567 C1018.08,867.328 1017.08,866.954 1016.69,867.088 C1016.69,867.088 1016.79,848.976 1016.79,848.976 C1016.79,848.976 1019.9,849.061 1019.9,849.061 Z " fill="rgb(46,61,101)"/>
<path d="M1019.94,585.061 C1020.02,586.213 1020.01,588.35 1019.77,589.598 C1019.47,591.16 1019.17,592.477 1019.83,594.01 C1020.09,594.613 1020.11,595.352 1019.95,596 C1019.52,597.707 1019.7,599.29 1019.99,601 C1018.67,601.383 1017.92,600.439 1016.82,600.102 C1016.82,600.102 1016.68,584.95 1016.68,584.95 C1016.68,584.95 1019.94,585.061 1019.94,585.061 Z " fill="rgb(47,64,106)"/>
<path d="M1030.34,834.086 C1030.34,834.086 1030.28,848.999 1030.28,848.999 C1030.28,848.999 1027.05,849.15 1027.05,849.15 C1026.96,847.244 1027.03,845.862 1027.09,843.947 C1027.09,843.947 1027.23,840.025 1027.23,840.025 C1027.25,839.316 1027.11,838.726 1027.15,837.972 C1027.15,837.972 1027.4,833.298 1027.4,833.298 C1028.23,834.337 1029.15,834.452 1030.34,834.086 Z " fill="rgb(47,64,106)"/>
<path d="M1030.2,584.995 C1030.2,584.995 1030.31,599.944 1030.31,599.944 C1030.31,599.944 1027,599.996 1027,599.996 C1027.23,598.609 1027.2,597.453 1027.03,596.052 C1027.03,596.052 1026.87,594.68 1026.87,594.68 C1028.55,593.424 1026.93,591.659 1026.93,590.595 C1026.93,590.595 1026.95,584.683 1026.95,584.683 C1026.95,584.683 1030.2,584.995 1030.2,584.995 Z " fill="rgb(47,64,106)"/>
<path d="M1030.4,819.05 C1030.4,819.05 1030.34,834.086 1030.34,834.086 C1029.15,834.452 1028.23,834.337 1027.4,833.298 C1027.41,832.633 1026.59,831.828 1027.1,830.725 C1028.03,828.728 1027.24,826.247 1027.11,824.093 C1027.03,822.829 1027.12,821.633 1027.19,820.41 C1027.19,820.41 1027.24,819.476 1027.24,819.476 C1028.34,818.906 1029.09,818.654 1030.4,819.05 Z " fill="rgb(49,67,111)"/>
<path d="M1030.31,599.944 C1030.31,599.944 1030.34,613.962 1030.34,613.962 C1029.13,614.173 1028.16,613.608 1027.09,613.536 C1027.09,613.536 1027.07,613.005 1027.07,613.005 C1027.04,612.195 1026.87,611.273 1027.04,610.474 C1027.6,607.982 1027.82,605.002 1027.14,602.54 C1026.93,601.773 1026.88,600.781 1027,599.996 C1027,599.996 1030.31,599.944 1030.31,599.944 Z " fill="rgb(49,67,111)"/>
<path d="M1019.32,834.33 C1019.14,835.007 1019.03,836.39 1019.59,836.981 C1020.08,837.502 1020.3,838.531 1019.94,839.097 C1018.84,840.805 1019.9,841.67 1019.9,843.279 C1019.9,843.279 1019.9,849.061 1019.9,849.061 C1019.9,849.061 1016.79,848.976 1016.79,848.976 C1016.79,848.976 1016.81,841.118 1016.81,841.118 C1016.81,841.118 1017.14,837.366 1017.14,837.366 C1017.14,837.366 1019.32,834.33 1019.32,834.33 Z " fill="rgb(47,64,106)"/>
<path d="M1019.99,601 C1019.99,601 1020.22,602.396 1020.22,602.396 C1018.8,604.758 1019.44,608.345 1019.11,610.987 C1019.11,610.987 1019.93,613.057 1019.93,613.057 C1019.8,613.206 1019.75,613.417 1019.95,613.565 C1019.1,613.134 1018.56,613.884 1018.54,614.187 C1018.54,614.187 1016.82,606.846 1016.82,606.846 C1016.82,606.846 1016.82,600.102 1016.82,600.102 C1017.92,600.439 1018.67,601.383 1019.99,601 Z " fill="rgb(49,67,111)"/>
<path d="M1020.38,525.259 C1021.04,525.949 1021.08,526.515 1020.72,527.307 C1020.37,528.061 1020.63,529.701 1020.56,531.11 C1020.56,531.11 1020.17,538.383 1020.17,538.383 C1020.17,538.383 1020,544.994 1020,544.994 C1020,544.994 1019.87,547.1 1019.87,547.1 C1019.54,547.075 1018.68,547.145 1018.01,546.8 C1018.01,546.8 1018.06,532.936 1018.06,532.936 C1018.13,531.858 1018.07,531.093 1016.98,530.999 C1016.98,530.999 1017.01,527.644 1017.01,527.644 C1018.17,527.443 1018.79,529.012 1017.62,530.016 C1018.09,531.069 1019.08,531.183 1019.72,529.84 C1019.46,529.342 1018.57,527.712 1019.1,526.795 C1019.43,526.234 1019.6,525.867 1020.38,525.259 Z " fill="rgb(42,55,92)"/>
<path d="M1107.85,640.114 C1106.47,639.277 1107.65,638.792 1108.06,638.369 C1108.59,637.82 1109.61,637.141 1110.17,636.966 C1109.53,638.104 1108.2,638.833 1107.85,640.114 Z " fill="rgb(53,73,120)"/>
<path d="M930.318,632.898 C928.474,634.767 926.699,635.692 925.589,638.365 C925.589,638.365 910.583,624.275 910.583,624.275 C910.583,624.275 914.515,624.714 914.515,624.714 C913.506,622.951 914.098,621.072 916.07,620.046 C916.07,620.046 930.318,632.898 930.318,632.898 Z " fill="rgb(47,64,106)"/>
<path d="M1115.41,803.595 C1115.41,803.595 1130.47,817.735 1130.47,817.735 C1127.81,816.311 1125.14,818.112 1122.75,820.235 C1122.75,820.235 1110.67,809.338 1110.67,809.338 C1111.18,806.685 1112.68,804.237 1115.41,803.595 Z " fill="rgb(47,64,106)"/>
<path d="M918.192,840.021 C918.192,840.021 903.168,855.349 903.168,855.349 C901.869,854.556 901.713,853.538 901.17,850.995 C901.17,850.995 895.799,855.182 895.799,855.182 C895.799,855.182 912.951,835.858 912.951,835.858 C915.101,837.124 917.319,837.524 918.192,840.021 Z " fill="rgb(44,58,97)"/>
<path d="M1027.14,684.897 C1027.14,685.927 1028.23,686.976 1027.45,689.256 C1027.45,689.256 1033.38,691.466 1033.38,691.466 C1033.88,691.47 1034.94,690.685 1035.38,691.287 C1035.38,691.287 1036.74,693.144 1036.74,693.144 C1038.32,692.199 1040.03,691.751 1041.45,692.599 C1042.56,693.26 1043.07,694.289 1042.21,696.814 C1044.3,696.414 1045.22,695.39 1047.52,696.976 C1047.52,696.976 1051.86,693.012 1051.86,693.012 C1052.05,693.644 1052.36,693.951 1053.02,694.175 C1049.64,697.816 1049.42,697.568 1049.3,700.469 C1049.21,702.856 1054.38,706.737 1055.97,712.932 C1056.68,715.693 1057.99,718.437 1059.36,719.736 C1059.36,719.736 1071.99,720.115 1071.99,720.115 C1077.65,722.096 1083.83,723.493 1090.4,722.444 C1090.4,722.444 1099.15,721.046 1099.15,721.046 C1099.97,720.914 1101.93,721.735 1102,719.889 C1102,719.889 1119.91,719.974 1119.91,719.974 C1121.62,722.123 1120.56,724.558 1120.61,727.446 C1120.61,727.446 1093.06,727.4 1093.06,727.4 C1093.04,727.136 1093.13,726.718 1092.82,726.005 C1092.82,726.005 1078.18,726.005 1078.18,726.005 C1077.87,726.718 1077.96,727.136 1077.97,727.405 C1077.97,727.405 1059.17,727.868 1059.17,727.868 C1055.99,730.236 1058.15,734.413 1055.34,738.14 C1053.7,739.274 1052.64,742.29 1053.45,745.48 C1053.9,747.259 1057.11,748.784 1058.86,749.761 C1059.23,751.748 1057.82,753.118 1055.93,754.223 C1054.7,752.899 1052.26,750.812 1050.57,749.781 C1045.17,746.49 1041.93,754.927 1041.37,755.358 C1040.44,756.075 1038.05,755.871 1037.04,754.625 C1037.04,754.625 1035.46,756.107 1035.46,756.107 C1035.46,756.107 1032.57,756.895 1032.57,756.895 C1032.57,756.895 1029,757.331 1029,757.331 C1028.26,757.421 1028.04,758.819 1027.71,760.257 C1027.71,760.257 1027.09,763.043 1027.09,763.043 C1025.8,762.618 1024.24,764.102 1022.95,763.765 C1022.95,763.765 1019.75,763.043 1019.75,763.043 C1019.74,761.113 1018.36,759.077 1019.99,757.058 C1017.96,757.825 1016.54,757.589 1015.79,757.513 C1015.25,757.458 1014.96,756.18 1014.45,755.97 C1013.74,755.684 1012.5,756.634 1012.54,756.531 C1012.54,756.531 1009.52,754.06 1009.52,754.06 C1008.54,754.922 1006.98,755.189 1005.53,754.781 C1004.13,754.388 1003.78,752.815 1004.32,751.348 C1001.18,751.213 999.614,751.113 997.953,752.061 C997.343,751.961 997.09,751.705 997.1,751.298 C997.845,748.808 997.657,745.548 996.543,743.906 C995.893,742.949 993.428,742.71 992.39,741.986 C991.833,741.598 989.705,731.333 989.738,731.191 C991.266,724.67 981.094,729.346 969.074,727.36 C969.04,727.14 969.128,726.73 968.832,726.007 C968.832,726.007 958.168,726.007 958.168,726.007 C957.872,726.73 957.96,727.14 957.914,727.392 C957.914,727.392 927.736,727.636 927.736,727.636 C927.033,725.114 928.476,722.794 928.502,720.103 C928.502,720.103 942.921,719.693 942.921,719.693 C945.309,719.625 946.3,719.85 947.947,719.864 C947.947,719.864 964.97,722.778 964.97,722.778 C964.97,722.778 975.004,720.09 975.004,720.09 C975.004,720.09 986.126,719.473 986.126,719.473 C987.752,719.382 989.276,717.596 989.73,715.837 C990.72,713.784 990.452,709.969 991.154,708.028 C991.794,706.259 996.001,704.962 995.474,701.71 C995.312,700.716 995.324,699.496 995.794,698.568 C996.742,696.701 998.415,697.841 999.641,697.79 C1002.71,697.662 1004.88,695.541 1004.27,692.844 C1007.02,691.845 1008.85,692.756 1010.14,692.659 C1010.53,690.78 1012.35,691.161 1012.56,691.788 C1012.74,692.305 1012.49,688.939 1014.39,691.202 C1016.17,690.347 1018.55,688.781 1020.01,687.605 C1018.55,685.73 1019.8,684.622 1019.81,683.892 C1022.38,682.192 1024.62,683.556 1027.14,684.897 Z " fill="rgb(53,73,120)"/>
<path d="M1027,633.102 C1027,633.102 1027.14,684.897 1027.14,684.897 C1024.62,683.556 1022.38,682.192 1019.81,683.892 C1019.81,683.892 1020.15,633.08 1020.15,633.08 C1022.25,634.539 1024.89,634.379 1027,633.102 Z " fill="rgb(54,73,120)"/>
<path d="M928.502,720.103 C928.476,722.794 927.033,725.114 927.736,727.636 C927.736,727.636 919.173,727.404 919.173,727.404 C918.382,724.768 918.638,722.532 918.988,719.91 C918.988,719.91 928.502,720.103 928.502,720.103 Z " fill="rgb(52,72,118)"/>
<path d="M908.775,719.988 C908.775,719.988 915.789,720.141 915.789,720.141 C916.295,721.33 916.588,723.052 915.07,724.324 C914.699,725.35 914.781,726.475 914.81,727.388 C912.848,727.381 910.953,728.007 908.991,726.998 C908.686,727.256 908.037,727.52 907.727,727.46 C907.727,727.46 907.35,719.82 907.35,719.82 C907.674,720.053 908.335,719.979 908.775,719.988 Z " fill="rgb(51,70,115)"/>
<path d="M975.004,720.09 C975.004,720.09 964.97,722.778 964.97,722.778 C964.97,722.778 947.947,719.864 947.947,719.864 C947.947,719.864 975.004,720.09 975.004,720.09 Z " fill="rgb(54,73,120)"/>
<path d="M1027.07,613.005 C1027.07,613.005 1027.09,613.536 1027.09,613.536 C1027.16,615.727 1027.23,617.763 1027.19,619.957 C1024.66,619.551 1022.24,619.515 1019.62,619.821 C1019.48,617.579 1018.88,615.68 1019.95,613.565 C1019.75,613.417 1019.8,613.206 1019.93,613.057 C1019.93,613.057 1027.07,613.005 1027.07,613.005 Z " fill="rgb(51,70,115)"/>
<path d="M1027.13,623.175 C1027.1,625.058 1027.38,626.882 1027.27,628.737 C1024.8,630.055 1022.22,629.868 1019.69,629.057 C1019.46,627.036 1019.27,625.17 1019.67,623.313 C1022.3,623.69 1024.83,624.508 1027.13,623.175 Z " fill="rgb(52,72,118)"/>
<path d="M1027.27,628.737 C1027.27,628.737 1027,633.102 1027,633.102 C1024.89,634.379 1022.25,634.539 1020.15,633.08 C1020.15,633.08 1019.69,629.057 1019.69,629.057 C1022.22,629.868 1024.8,630.055 1027.27,628.737 Z " fill="rgb(53,73,120)"/>
<path d="M1027.19,619.957 C1027.19,619.957 1027.13,623.175 1027.13,623.175 C1024.83,624.508 1022.3,623.69 1019.67,623.313 C1019.86,622.415 1019.68,620.798 1019.62,619.821 C1022.24,619.515 1024.66,619.551 1027.19,619.957 Z " fill="rgb(52,71,117)"/>
<path d="M918.988,719.91 C918.638,722.532 918.382,724.768 919.173,727.404 C919.173,727.404 914.81,727.388 914.81,727.388 C914.781,726.475 914.699,725.35 915.07,724.324 C916.588,723.052 916.295,721.33 915.789,720.141 C915.789,720.141 918.988,719.91 918.988,719.91 Z " fill="rgb(52,71,117)"/>
<path d="M1027.09,763.043 C1027.09,763.043 1027.12,801.062 1027.12,801.062 C1024.68,800.292 1022.54,799.621 1019.98,800.084 C1019.98,800.084 1019.75,763.043 1019.75,763.043 C1019.75,763.043 1022.95,763.765 1022.95,763.765 C1024.24,764.102 1025.8,762.618 1027.09,763.043 Z " fill="rgb(54,73,120)"/>
<path d="M997.953,752.061 C997.953,752.061 981.191,769.789 981.191,769.789 C976.816,774.416 972.383,779.12 967.812,783.319 C967.812,783.319 966.961,782.466 966.961,782.466 C968.867,780.964 970.142,778.873 971.885,777.021 C971.885,777.021 985.807,762.229 985.807,762.229 C989.419,758.392 993.026,754.408 997.1,751.298 C997.09,751.705 997.343,751.961 997.953,752.061 Z " fill="rgb(54,73,120)"/>
<path d="M1027.54,806.299 C1027.69,808.068 1028.13,810.162 1027.4,812.137 C1025.01,811.361 1022.34,811.427 1020.01,811.899 C1018.17,809.666 1019.6,807.021 1019.71,805.016 C1022.52,804.88 1024.91,805.687 1027.54,806.299 Z " fill="rgb(52,72,118)"/>
<path d="M1019.45,820.334 C1020.3,821.46 1019.92,822.72 1019.91,823.922 C1019.89,827.181 1018.52,829.692 1020.28,831.635 C1020.17,832.613 1019.85,833.497 1019.32,834.33 C1019.32,834.33 1017.14,837.366 1017.14,837.366 C1017.55,832.761 1015.59,825.861 1019.45,820.334 Z " fill="rgb(49,67,111)"/>
<path d="M1027.12,801.062 C1027.12,801.062 1027.54,806.299 1027.54,806.299 C1024.91,805.687 1022.52,804.88 1019.71,805.016 C1019.71,805.016 1019.98,800.084 1019.98,800.084 C1022.54,799.621 1024.68,800.292 1027.12,801.062 Z " fill="rgb(53,73,120)"/>
<path d="M1027.03,814.989 C1028.06,816.523 1027.33,817.789 1027.24,819.476 C1027.24,819.476 1027.19,820.41 1027.19,820.41 C1024.7,820.744 1021.83,820.857 1019.61,819.992 C1019.07,818.156 1019.17,816.804 1019.44,814.992 C1022.03,815.944 1024.52,815.841 1027.03,814.989 Z " fill="rgb(51,70,115)"/>
<path d="M1027.19,820.41 C1027.12,821.633 1027.03,822.829 1027.11,824.093 C1027.11,824.093 1019.91,823.922 1019.91,823.922 C1019.92,822.72 1020.3,821.46 1019.45,820.334 C1019.35,820.208 1019.4,820.044 1019.61,819.992 C1021.83,820.857 1024.7,820.744 1027.19,820.41 Z " fill="rgb(50,69,113)"/>
<path d="M1027.4,812.137 C1027.12,812.89 1026.5,814.199 1027.03,814.989 C1024.52,815.841 1022.03,815.944 1019.44,814.992 C1019.61,813.929 1019.31,812.991 1020.01,811.899 C1022.34,811.427 1025.01,811.361 1027.4,812.137 Z " fill="rgb(52,71,117)"/>
<path d="M952.146,800.102 C950.357,802.19 948.542,804.345 946.24,805.825 C945.979,805.571 945.773,805.066 946.003,804.505 C946.003,804.505 950.711,799.927 950.711,799.927 C950.711,799.927 952.146,800.102 952.146,800.102 Z " fill="rgb(47,64,106)"/>
<path d="M969.074,727.36 C965.324,726.74 961.649,727.362 957.914,727.392 C957.96,727.14 957.872,726.73 958.168,726.007 C958.168,726.007 968.832,726.007 968.832,726.007 C969.128,726.73 969.04,727.14 969.074,727.36 Z " fill="rgb(54,73,120)"/>
<path d="M1128.49,720.149 C1129.31,722.48 1129.04,724.937 1129,727.478 C1129,727.478 1120.61,727.446 1120.61,727.446 C1120.56,724.558 1121.62,722.123 1119.91,719.974 C1122.77,719.987 1125.64,720.751 1128.49,720.149 Z " fill="rgb(52,72,118)"/>
<path d="M1140.34,719.953 C1140.53,719.769 1140.8,719.754 1141.02,719.918 C1140.58,722.256 1140.7,724.716 1140.99,727.121 C1140.86,727.207 1140.63,727.304 1140.46,727.093 C1138.05,728.098 1135.52,727.267 1132.99,727.349 C1132.99,727.349 1133.08,720.137 1133.08,720.137 C1133.08,720.137 1140.34,719.953 1140.34,719.953 Z " fill="rgb(51,70,115)"/>
<path d="M1055.93,754.223 C1057.82,753.118 1059.23,751.748 1058.86,749.761 C1060.84,750.86 1062.69,751.335 1063.82,753.752 C1062.63,754.404 1061.92,755.279 1062.32,756.495 C1062.55,757.192 1062.91,758.112 1063.85,759.092 C1063.85,759.092 1070,765.495 1070,765.495 C1070.25,766.101 1069.99,766.613 1069.75,766.829 C1069.75,766.829 1059.49,757.32 1059.49,757.32 C1058.12,756.046 1057.23,755.624 1055.93,754.223 Z " fill="rgb(54,73,120)"/>
<path d="M1133.08,720.137 C1133.08,720.137 1132.99,727.349 1132.99,727.349 C1132.99,727.349 1129,727.478 1129,727.478 C1129.04,724.937 1129.31,722.48 1128.49,720.149 C1129.98,719.833 1131.56,720.176 1133.08,720.137 Z " fill="rgb(52,71,117)"/>
<path d="M1093.06,727.4 C1088.09,727.392 1082.93,727.283 1077.97,727.405 C1077.96,727.136 1077.87,726.718 1078.18,726.005 C1078.18,726.005 1092.82,726.005 1092.82,726.005 C1093.13,726.718 1093.04,727.136 1093.06,727.4 Z " fill="rgb(54,73,120)"/>
<path d="M1089.2,655.197 C1089.2,655.197 1082.09,662.955 1082.09,662.955 C1082.09,662.955 1067.67,678.407 1067.67,678.407 C1067.67,678.407 1053.02,694.175 1053.02,694.175 C1052.36,693.951 1052.05,693.644 1051.86,693.012 C1052.92,692.036 1053.83,690.002 1055.16,688.612 C1055.16,688.612 1077.2,665.537 1077.2,665.537 C1081.01,661.544 1084.25,658.232 1087.82,654.807 C1087.82,654.807 1089.2,655.197 1089.2,655.197 Z " fill="rgb(54,73,120)"/>
<path d="M1102,719.889 C1101.93,721.735 1099.97,720.914 1099.15,721.046 C1099.15,721.046 1090.4,722.444 1090.4,722.444 C1083.83,723.493 1077.65,722.096 1071.99,720.115 C1071.99,720.115 1102,719.889 1102,719.889 Z " fill="rgb(54,73,120)"/>
<path d="M1089.2,655.197 C1089.2,655.197 1087.82,654.807 1087.82,654.807 C1087.82,654.807 1095.78,647.175 1095.78,647.175 C1096.01,647.428 1096.21,647.913 1095.99,648.485 C1095.99,648.485 1089.2,655.197 1089.2,655.197 Z " fill="rgb(49,67,111)"/>
<path d="M1025.12,1001.92 C1025.73,1003.44 1025.27,1005.08 1025.27,1007.12 C1025.27,1007.12 1025.32,1025.13 1025.32,1025.13 C1025.32,1025.13 1025.63,1035.01 1025.63,1035.01 C1024.15,1035.26 1022.76,1035.24 1021.43,1034.99 C1021.43,1034.99 1021.76,1014.04 1021.76,1014.04 C1021.76,1014.04 1021.08,1001.97 1021.08,1001.97 C1021.08,1001.97 1025.12,1001.92 1025.12,1001.92 Z " fill="rgb(33,43,73)"/>
<path d="M1026.59,963.929 C1026.24,965.543 1025.92,967.438 1026.04,968.993 C1026.37,973.237 1026.43,977.363 1026.16,981.626 C1024.39,981.292 1022.55,980.97 1020.78,981.579 C1020.78,981.579 1020.63,967.39 1020.63,967.39 C1020.62,966.197 1020.09,965.227 1020.8,963.99 C1020.8,963.99 1026.59,963.929 1026.59,963.929 Z " fill="rgb(36,46,78)"/>
<path d="M1024.5,1070.1 C1024.5,1070.1 1023.87,1118.49 1023.87,1118.49 C1023.86,1118.85 1023.46,1119.12 1023.14,1119.07 C1023.14,1119.07 1022.91,1072.89 1022.91,1072.89 C1022.91,1072.89 1021.72,1069.99 1021.72,1069.99 C1021.72,1069.99 1024.5,1070.1 1024.5,1070.1 Z " fill="rgb(30,40,67)"/>
<path d="M1025.02,1053.42 C1026.59,1059.11 1024.57,1064.72 1024.5,1070.1 C1024.5,1070.1 1021.72,1069.99 1021.72,1069.99 C1021.59,1064.5 1020.88,1058.9 1021.92,1053.48 C1023.02,1053.66 1024.02,1054.05 1025.02,1053.42 Z " fill="rgb(31,40,69)"/>
<path d="M1025.94,985.082 C1025.94,985.082 1026.88,986.558 1026.88,986.558 C1026.88,986.558 1026.13,988.895 1026.13,988.895 C1026.13,988.895 1025.89,993.845 1025.89,993.845 C1025.89,993.845 1020.67,993.985 1020.67,993.985 C1020.52,990.885 1021.35,988.027 1021.08,985.025 C1021.08,985.025 1025.94,985.082 1025.94,985.082 Z " fill="rgb(35,45,76)"/>
<path d="M1025.89,993.845 C1025.76,996.55 1026.14,999.371 1025.12,1001.92 C1025.12,1001.92 1021.08,1001.97 1021.08,1001.97 C1021.08,1001.97 1020.67,993.985 1020.67,993.985 C1020.67,993.985 1025.89,993.845 1025.89,993.845 Z " fill="rgb(34,44,75)"/>
<path d="M1025.57,1040.95 C1025.56,1042.32 1025.46,1043.11 1025.37,1045.25 C1025.37,1045.25 1025.02,1053.42 1025.02,1053.42 C1024.02,1054.05 1023.02,1053.66 1021.92,1053.48 C1021.92,1053.48 1021.41,1046.02 1021.41,1046.02 C1021.28,1044.08 1022.42,1042.81 1021.47,1040.91 C1022.84,1041.32 1024.15,1041.32 1025.57,1040.95 Z " fill="rgb(32,42,70)"/>
<path d="M1025.63,1035.01 C1025.63,1035.01 1025.57,1040.95 1025.57,1040.95 C1024.15,1041.32 1022.84,1041.32 1021.47,1040.91 C1020.67,1039.33 1021.4,1036.8 1021.43,1034.99 C1022.76,1035.24 1024.15,1035.26 1025.63,1035.01 Z " fill="rgb(33,42,71)"/>
<path d="M1026.16,981.626 C1026.16,981.626 1025.94,985.082 1025.94,985.082 C1025.94,985.082 1021.08,985.025 1021.08,985.025 C1021.08,985.025 1020.78,981.579 1020.78,981.579 C1022.55,980.97 1024.39,981.292 1026.16,981.626 Z " fill="rgb(36,46,77)"/>
<path d="M1025.12,400.478 C1025.97,402.695 1025.33,405.23 1025.32,407.878 C1025.32,407.878 1025.29,426.845 1025.29,426.845 C1025.29,426.845 1025.2,432.199 1025.2,432.199 C1024.05,431.995 1023.04,432.01 1021.9,432.242 C1021.9,432.242 1021.67,426.835 1021.67,426.835 C1021.67,426.835 1021.66,407.92 1021.66,407.92 C1021.66,407.92 1021.76,400.502 1021.76,400.502 C1022.8,400.952 1024.02,400.975 1025.12,400.478 Z " fill="rgb(33,43,73)"/>
<path d="M1025.99,454.947 C1025.9,455.993 1026.2,456.896 1026.06,458.04 C1026.61,460.76 1027.38,462.552 1026.18,464.849 C1025.56,466.033 1026.48,467.825 1026.46,468.992 C1026.46,468.992 1020.84,468.965 1020.84,468.965 C1021.08,467.99 1020.9,466.145 1020.9,465.046 C1020.9,465.046 1020.88,453.825 1020.88,453.825 C1021.93,454.588 1022.21,455.803 1023.51,455.779 C1024.54,455.76 1025.1,455.379 1025.99,454.947 Z " fill="rgb(36,46,78)"/>
<path d="M1025.54,438.023 C1025.8,442.369 1025.02,446.852 1026.31,451.103 C1024.7,451.678 1023.14,452.026 1021.41,451.59 C1020.88,448.278 1020.33,443.697 1021.99,440.203 C1021.14,439.342 1021.51,438.352 1021.66,437.957 C1022.93,437.723 1024.18,437.748 1025.54,438.023 Z " fill="rgb(35,45,76)"/>
<path d="M1025.57,382.088 C1024.3,382.389 1023.27,382.735 1021.89,381.989 C1021.89,381.989 1022.43,375.173 1022.43,375.173 C1022.43,375.173 1022.98,347.009 1022.98,347.009 C1022.98,347.009 1023.99,347.006 1023.99,347.006 C1023.99,347.006 1024.25,379.745 1024.25,379.745 C1024.26,380.361 1025.57,381.477 1025.57,382.088 Z " fill="rgb(31,40,69)"/>
<path d="M1025.57,382.088 C1025.57,382.088 1025.41,395.88 1025.41,395.88 C1024.02,396.579 1023.02,396.622 1021.66,395.979 C1021.18,391.326 1021.52,386.586 1021.89,381.989 C1023.27,382.735 1024.3,382.389 1025.57,382.088 Z " fill="rgb(32,42,70)"/>
<path d="M1026.31,451.103 C1026.31,451.103 1025.99,454.947 1025.99,454.947 C1025.1,455.379 1024.54,455.76 1023.51,455.779 C1022.21,455.803 1021.93,454.588 1020.88,453.825 C1020.88,453.094 1021.18,452.207 1021.41,451.59 C1023.14,452.026 1024.7,451.678 1026.31,451.103 Z " fill="rgb(36,46,77)"/>
<path d="M1025.2,432.199 C1025.2,432.199 1025.54,438.023 1025.54,438.023 C1024.18,437.748 1022.93,437.723 1021.66,437.957 C1021.66,437.957 1021.9,432.242 1021.9,432.242 C1023.04,432.01 1024.05,431.995 1025.2,432.199 Z " fill="rgb(34,44,75)"/>
<path d="M1023.99,347.006 C1023.99,347.006 1022.98,347.009 1022.98,347.009 C1022.98,347.009 1023.02,330.497 1023.02,330.497 C1023.2,330.099 1023.53,329.966 1023.76,329.954 C1023.76,329.954 1023.99,347.006 1023.99,347.006 Z " fill="rgb(30,40,67)"/>
<path d="M1025.41,395.88 C1025.39,397.382 1024.55,398.98 1025.12,400.478 C1024.02,400.975 1022.8,400.952 1021.76,400.502 C1021.79,398.894 1021.82,397.529 1021.66,395.979 C1023.02,396.622 1024.02,396.579 1025.41,395.88 Z " fill="rgb(33,42,71)"/>
<path d="M702.108,722.128 C702.068,722.836 701.884,723.881 701.565,725.253 C701.565,725.253 665.392,724.729 665.392,724.729 C664.363,724.714 662.233,723.921 660.979,723.314 C660.979,723.314 689.734,722.412 689.734,722.412 C693.919,722.281 698.158,722.322 702.108,722.128 Z " fill="rgb(33,43,73)"/>
<path d="M743.469,721.455 C743.469,721.455 745.722,721.706 745.722,721.706 C746.123,723.31 745.779,724.827 745.7,726.401 C744.785,726.482 744.004,725.839 742.972,725.973 C742.972,725.973 737.943,726.625 737.943,726.625 C734.138,727.119 730.591,726.043 727,726.001 C727.357,724.257 726.464,722.919 725.944,721.475 C725.944,721.475 743.469,721.455 743.469,721.455 Z " fill="rgb(36,46,78)"/>
<path d="M720.721,721.816 C720.461,723.197 720.334,724.478 720.674,725.928 C720.674,725.928 709.064,725.223 709.064,725.223 C708.337,723.936 708.428,722.922 709.001,721.79 C709.001,721.79 720.721,721.816 720.721,721.816 Z " fill="rgb(35,45,76)"/>
<path d="M725.944,721.475 C726.464,722.919 727.357,724.257 727,726.001 C727,726.001 720.674,725.928 720.674,725.928 C720.334,724.478 720.461,723.197 720.721,721.816 C722.8,721.82 724.117,721.477 725.944,721.475 Z " fill="rgb(36,46,77)"/>
<path d="M709.001,721.79 C708.428,722.922 708.337,723.936 709.064,725.223 C709.064,725.223 701.565,725.253 701.565,725.253 C701.884,723.881 702.068,722.836 702.108,722.128 C702.108,722.128 709.001,721.79 709.001,721.79 Z " fill="rgb(34,44,75)"/>
<path d="M659.038,723.72 C659.038,723.72 646.5,723.995 646.5,723.995 C646.106,723.81 645.973,723.464 645.962,723.28 C645.962,723.28 658.5,723.005 658.5,723.005 C658.894,723.189 659.027,723.536 659.038,723.72 Z " fill="rgb(32,42,70)"/>
<path d="M1347.42,725.206 C1347.13,723.916 1346.94,722.837 1346.96,722.006 C1349.86,721.667 1353.2,722.392 1356.32,722.476 C1356.32,722.476 1387.02,723.301 1387.02,723.301 C1385.78,723.918 1383.62,724.726 1382.61,724.739 C1382.61,724.739 1347.42,725.206 1347.42,725.206 Z " fill="rgb(33,43,73)"/>
<path d="M1306.2,721.762 C1306.2,721.762 1312,721.662 1312,721.662 C1315.66,721.599 1318.87,722.117 1321.99,722.017 C1321.99,722.017 1321.95,725.964 1321.95,725.964 C1321.95,725.964 1311.95,726.394 1311.95,726.394 C1309.82,726.486 1307.69,726.315 1306,726.017 C1305.16,725.869 1303.66,725.8 1303.05,726.354 C1303.92,724.472 1303.96,723.566 1302.98,721.689 C1304.08,722.122 1305.07,721.781 1306.2,721.762 Z " fill="rgb(36,46,78)"/>
<path d="M1339.86,721.663 C1340.54,722.862 1340.73,723.854 1339.94,725.185 C1339.94,725.185 1328.02,726.093 1328.02,726.093 C1328.91,724.582 1328.86,723.396 1328.4,721.811 C1328.4,721.811 1339.86,721.663 1339.86,721.663 Z " fill="rgb(35,45,76)"/>
<path d="M1328.4,721.811 C1328.86,723.396 1328.91,724.582 1328.02,726.093 C1328.02,726.093 1321.95,725.964 1321.95,725.964 C1321.95,725.964 1321.99,722.017 1321.99,722.017 C1321.99,722.017 1328.4,721.811 1328.4,721.811 Z " fill="rgb(36,46,77)"/>
<path d="M1346.96,722.006 C1346.94,722.837 1347.13,723.916 1347.42,725.206 C1347.42,725.206 1339.94,725.185 1339.94,725.185 C1340.73,723.854 1340.54,722.862 1339.86,721.663 C1342.41,721.63 1344.64,722.276 1346.96,722.006 Z " fill="rgb(34,44,75)"/>
<path d="M1271.48,720.908 C1271.86,722.682 1271.83,724.486 1271.44,726.243 C1271.44,726.243 1257.02,726.28 1257.02,726.28 C1257.02,726.28 1257.05,720.73 1257.05,720.73 C1257.05,720.73 1271.48,720.908 1271.48,720.908 Z " fill="rgb(39,51,85)"/>
<path d="M1257.05,720.73 C1257.05,720.73 1257.02,726.28 1257.02,726.28 C1257.02,726.28 1243,726.238 1243,726.238 C1243,726.238 1242.99,720.88 1242.99,720.88 C1242.99,720.88 1257.05,720.73 1257.05,720.73 Z " fill="rgb(40,52,87)"/>
<path d="M1298.95,721.782 C1299.68,723.203 1300.18,724.618 1299.35,726.28 C1294.24,726.869 1286.6,726.152 1281.71,726.194 C1281.25,724.584 1280.97,723.083 1281.74,721.547 C1281.74,721.547 1298.95,721.782 1298.95,721.782 Z " fill="rgb(37,48,81)"/>
<path d="M1277.7,720.953 C1278.12,722.593 1278.1,724.312 1277.52,726.231 C1275.8,726.687 1273.33,726.239 1271.44,726.243 C1271.83,724.486 1271.86,722.682 1271.48,720.908 C1273.39,720.931 1275.63,720.217 1277.7,720.953 Z " fill="rgb(39,50,84)"/>
<path d="M1241,721.018 C1241,721.018 1242.99,720.88 1242.99,720.88 C1242.99,720.88 1243,726.238 1243,726.238 C1242.7,726.237 1242.36,725.784 1242,726.504 C1241.83,726.845 1241.69,727.221 1241.78,727.933 C1240.92,726.975 1239.95,727.041 1238.97,727.057 C1238.97,727.057 1238.92,720.843 1238.92,720.843 C1238.92,720.843 1241,721.018 1241,721.018 Z " fill="rgb(41,54,89)"/>
<path d="M1281.74,721.547 C1280.97,723.083 1281.25,724.584 1281.71,726.194 C1281.71,726.194 1277.52,726.231 1277.52,726.231 C1278.1,724.312 1278.12,722.593 1277.7,720.953 C1278.96,720.399 1281.22,720.151 1281.74,721.547 Z " fill="rgb(39,49,83)"/>
<path d="M1302.98,721.689 C1303.96,723.566 1303.92,724.472 1303.05,726.354 C1301.79,727.495 1300.28,726.174 1299.35,726.28 C1300.18,724.618 1299.68,723.203 1298.95,721.782 C1300.15,721.052 1301.81,721.222 1302.98,721.689 Z " fill="rgb(37,48,80)"/>
<path d="M766.894,720.827 C766.894,720.827 766.981,726.094 766.981,726.094 C760.962,726.454 754.978,727.29 749.039,726.105 C749.039,726.105 748.997,721.869 748.997,721.869 C748.997,721.869 763.255,721.646 763.255,721.646 C764.142,721.632 764.262,720.998 764.551,720.653 C765.447,719.587 766.258,720.839 766.894,720.827 Z " fill="rgb(37,48,81)"/>
<path d="M805.963,720.802 C805.963,720.802 805.994,726.091 805.994,726.091 C805.994,726.091 798.798,726.407 798.798,726.407 C796.543,726.506 793.689,726.268 791.736,726.287 C791.517,724.329 791.622,722.613 791.948,720.785 C791.948,720.785 805.963,720.802 805.963,720.802 Z " fill="rgb(40,52,87)"/>
<path d="M791.948,720.785 C791.622,722.613 791.517,724.329 791.736,726.287 C791.736,726.287 777.651,726.427 777.651,726.427 C777.142,724.41 777.133,722.36 777.711,720.436 C777.711,720.436 791.948,720.785 791.948,720.785 Z " fill="rgb(39,51,85)"/>
<path d="M777.711,720.436 C777.133,722.36 777.142,724.41 777.651,726.427 C775.191,726.452 772.462,727.073 770.066,726.329 C771.553,724.532 772.304,723.13 771.486,720.742 C771.486,720.742 777.711,720.436 777.711,720.436 Z " fill="rgb(39,50,84)"/>
<path d="M771.486,720.742 C772.304,723.13 771.553,724.532 770.066,726.329 C769.081,726.023 768.068,726.029 766.981,726.094 C766.981,726.094 766.894,720.827 766.894,720.827 C766.894,720.827 771.486,720.742 771.486,720.742 Z " fill="rgb(39,49,83)"/>
<path d="M808.002,721.01 C808.002,721.01 809.471,720.839 809.471,720.839 C809.849,722.794 809.815,724.866 809.509,726.787 C809.005,726.962 808.501,727.029 807.999,726.972 C807.543,727.029 806.835,727.073 806.531,727 C806.232,726.928 806.017,726.436 805.994,726.091 C805.994,726.091 805.963,720.802 805.963,720.802 C805.963,720.802 808.002,721.01 808.002,721.01 Z " fill="rgb(41,54,89)"/>
<path d="M748.997,721.869 C748.997,721.869 749.039,726.105 749.039,726.105 C749.039,726.105 745.7,726.401 745.7,726.401 C745.779,724.827 746.123,723.31 745.722,721.706 C745.722,721.706 748.997,721.869 748.997,721.869 Z " fill="rgb(37,48,80)"/>
<path d="M1026.37,947.037 C1026.22,951.661 1027.03,956.476 1026.19,960.985 C1026.19,960.985 1020.74,961.031 1020.74,961.031 C1020.74,961.031 1020.28,950.952 1020.28,950.952 C1020.21,949.308 1020.77,948.005 1021.16,947.034 C1021.16,947.034 1026.37,947.037 1026.37,947.037 Z " fill="rgb(37,48,81)"/>
<path d="M1026.29,909.992 C1026.29,909.992 1026.23,922.99 1026.23,922.99 C1026.23,922.99 1020.94,922.817 1020.94,922.817 C1020.85,921.94 1020.86,921.382 1020.73,919.764 C1020.73,919.764 1019.94,910.008 1019.94,910.008 C1019.94,910.008 1026.29,909.992 1026.29,909.992 Z " fill="rgb(40,52,87)"/>
<path d="M1026.23,922.99 C1026.23,922.99 1026.55,927.213 1026.55,927.213 C1026.55,927.213 1026.28,935.893 1026.28,935.893 C1026.28,935.893 1020.49,935.499 1020.49,935.499 C1020.49,935.499 1020.94,922.817 1020.94,922.817 C1020.94,922.817 1026.23,922.99 1026.23,922.99 Z " fill="rgb(39,51,85)"/>
<path d="M1029.01,902.979 C1025.96,903.163 1029.92,906.818 1026.6,908.69 C1026.16,908.148 1026.03,907.628 1026,907.004 C1025.89,904.743 1027.02,901.173 1027,894.139 C1027,894.139 1026.98,889.329 1026.98,889.329 C1026.98,889.329 1027.03,885.79 1027.03,885.79 C1027.41,885.76 1028.46,885.86 1028.94,886.202 C1028.94,886.202 1029.01,902.979 1029.01,902.979 Z " fill="rgb(42,55,92)"/>
<path d="M1026.56,941.041 C1026.56,941.041 1026.37,947.037 1026.37,947.037 C1026.37,947.037 1021.16,947.034 1021.16,947.034 C1019.73,945.146 1020.64,942.461 1020.59,940.492 C1022.69,941.114 1024.57,941.105 1026.56,941.041 Z " fill="rgb(39,49,83)"/>
<path d="M1026.28,935.893 C1026.28,935.893 1026.56,941.041 1026.56,941.041 C1024.57,941.105 1022.69,941.114 1020.59,940.492 C1020.59,940.492 1020.49,935.499 1020.49,935.499 C1020.49,935.499 1026.28,935.893 1026.28,935.893 Z " fill="rgb(39,50,84)"/>
<path d="M1026,907.004 C1026.03,907.628 1026.16,908.148 1026.6,908.69 C1025.81,909.254 1026.29,909.62 1026.29,909.992 C1026.29,909.992 1019.94,910.008 1019.94,910.008 C1019.94,910.008 1019.65,908.282 1019.65,908.282 C1019.59,907.93 1019.95,907.38 1019.96,906.964 C1019.96,906.964 1026,907.004 1026,907.004 Z " fill="rgb(41,54,89)"/>
<path d="M1026.19,960.985 C1025.98,962.105 1026.55,963.14 1026.59,963.929 C1026.59,963.929 1020.8,963.99 1020.8,963.99 C1021.3,963.116 1020.78,961.98 1020.74,961.031 C1020.74,961.031 1026.19,960.985 1026.19,960.985 Z " fill="rgb(37,48,80)"/>
<path d="M1026.46,468.992 C1026.46,468.992 1026.16,484.631 1026.16,484.631 C1024.36,484.281 1022.5,483.973 1020.73,484.609 C1020.11,479.646 1020.48,474.233 1020.84,468.965 C1020.84,468.965 1026.46,468.992 1026.46,468.992 Z " fill="rgb(37,48,81)"/>
<path d="M1026.15,496.944 C1026.15,496.944 1026.14,510.844 1026.14,510.844 C1026.14,510.844 1021.03,511.391 1021.03,511.391 C1021.03,511.391 1020.79,506.13 1020.79,506.13 C1020.63,502.535 1021.05,499.966 1020.83,497.056 C1020.83,497.056 1026.15,496.944 1026.15,496.944 Z " fill="rgb(39,51,85)"/>
<path d="M1026.14,510.844 C1026.14,510.844 1026.23,523.04 1026.23,523.04 C1026.23,523.04 1020.87,522.967 1020.87,522.967 C1020.42,521.746 1019.9,513.993 1021.03,511.391 C1021.03,511.391 1026.14,510.844 1026.14,510.844 Z " fill="rgb(40,52,87)"/>
<path d="M1026.5,491.007 C1027.19,492.958 1026.15,495.276 1026.15,496.944 C1026.15,496.944 1020.83,497.056 1020.83,497.056 C1020.67,494.855 1019.68,493.352 1020.72,490.972 C1020.72,490.972 1026.5,491.007 1026.5,491.007 Z " fill="rgb(39,50,84)"/>
<path d="M1026.16,484.631 C1026.12,486.796 1025.77,488.935 1026.5,491.007 C1026.5,491.007 1020.72,490.972 1020.72,490.972 C1021.49,489.223 1020.95,486.419 1020.73,484.609 C1022.5,483.973 1024.36,484.281 1026.16,484.631 Z " fill="rgb(39,49,83)"/>
<path d="M1026.23,523.04 C1026.32,523.332 1027.03,523.441 1026.85,524.503 C1026.73,525.203 1026.31,525.367 1025.98,525.9 C1025.79,526.21 1026.14,526.879 1026.37,527.105 C1024.42,527.535 1022.63,527.651 1020.72,527.307 C1021.08,526.515 1021.04,525.949 1020.38,525.259 C1021.15,524.667 1021.2,523.833 1020.87,522.967 C1020.87,522.967 1026.23,523.04 1026.23,523.04 Z " fill="rgb(41,54,89)"/>
<path d="M1026.63,552.704 C1026.26,555.47 1027.53,559.356 1026.72,562.908 C1026.72,562.908 1020.59,562.91 1020.59,562.91 C1019.26,558.567 1019.38,554.893 1020.23,551.133 C1022.12,552.122 1024.38,551.952 1026.63,552.704 Z " fill="rgb(43,58,96)"/>
<path d="M1026.62,565.718 C1027.59,568.364 1026.9,570.882 1026.94,573.518 C1024.71,573.555 1022.59,573.112 1020.16,573.457 C1020.16,573.457 1019.97,567.478 1019.97,567.478 C1019.95,566.809 1019.46,565.454 1020,564.488 C1020.75,563.172 1023.52,564.806 1026.46,563.451 C1027.07,563.173 1027.45,565.458 1026.62,565.718 Z " fill="rgb(45,60,100)"/>
<path d="M1026.66,544.716 C1027.24,545.924 1027.44,546.641 1027.24,548.146 C1027.24,548.146 1026.63,552.704 1026.63,552.704 C1024.38,551.952 1022.12,552.122 1020.23,551.133 C1020.57,549.632 1019.78,548.481 1019.87,547.1 C1019.87,547.1 1020,544.994 1020,544.994 C1020,544.994 1026.66,544.716 1026.66,544.716 Z " fill="rgb(43,57,94)"/>
<path d="M847.902,720.42 C848.535,723.051 849.014,724.798 847.809,727.133 C847.809,727.133 836.738,727.49 836.738,727.49 C836.738,727.49 835.553,720.652 835.553,720.652 C835.553,720.652 847.902,720.42 847.902,720.42 Z " fill="rgb(43,58,96)"/>
<path d="M854.155,720.681 C854.155,720.681 861.734,720.544 861.734,720.544 C861.734,720.544 861.767,727.388 861.767,727.388 C861.767,727.388 854.556,727.239 854.556,727.239 C854.556,727.239 852.011,727.079 852.011,727.079 C851.771,726.196 852.129,724.099 852.612,722.903 C852.792,722.455 851.306,721.764 851.303,721.3 C851.303,721.3 854.155,720.681 854.155,720.681 Z " fill="rgb(45,60,100)"/>
<path d="M832.398,720.784 C833.158,721.106 834.717,720.668 835.553,720.652 C835.553,720.652 836.738,727.49 836.738,727.49 C836.738,727.49 832.003,727.003 832.003,727.003 C832.003,727.003 829.911,727.157 829.911,727.157 C830.144,724.952 829.538,722.83 829.28,720.532 C830.12,720.477 831.511,720.409 832.398,720.784 Z " fill="rgb(43,57,94)"/>
<path d="M851.303,721.3 C851.306,721.764 852.792,722.455 852.612,722.903 C852.129,724.099 851.771,726.196 852.011,727.079 C852.011,727.079 847.809,727.133 847.809,727.133 C849.014,724.798 848.535,723.051 847.902,720.42 C849.174,720.396 850.063,720.101 851.303,721.3 Z " fill="rgb(45,59,98)"/>
<path d="M1212.38,720.688 C1212.84,722.988 1212.85,725.069 1212.3,727.301 C1212.3,727.301 1200.31,727.226 1200.31,727.226 C1200.64,724.949 1200.62,722.974 1200.16,720.706 C1204.18,720.189 1208.32,720.362 1212.38,720.688 Z " fill="rgb(43,58,96)"/>
<path d="M1195.48,720.939 C1195.89,720.491 1196.38,719.845 1197.25,720.583 C1197.25,720.583 1197.4,727.226 1197.4,727.226 C1197.4,727.226 1195,726.99 1195,726.99 C1195,726.99 1186.18,727.41 1186.18,727.41 C1186.18,727.41 1187.03,720.673 1187.03,720.673 C1189.77,720.637 1192.64,719.925 1195.48,720.939 Z " fill="rgb(45,60,100)"/>
<path d="M1217.41,720.574 C1217.41,720.574 1219.01,720.782 1219.01,720.782 C1219.01,720.782 1219.03,727.184 1219.03,727.184 C1219.03,727.184 1216.99,726.995 1216.99,726.995 C1216.99,726.995 1212.3,727.301 1212.3,727.301 C1212.85,725.069 1212.84,722.988 1212.38,720.688 C1213.98,720.817 1215.89,720.375 1217.41,720.574 Z " fill="rgb(43,57,94)"/>
<path d="M1200.16,720.706 C1200.62,722.974 1200.64,724.949 1200.31,727.226 C1199.23,727.219 1198.43,727.329 1197.4,727.226 C1197.4,727.226 1197.25,720.583 1197.25,720.583 C1198.05,721.262 1199.17,720.833 1200.16,720.706 Z " fill="rgb(45,59,98)"/>
<path d="M823.056,720.939 C823.056,720.939 823.052,727.573 823.052,727.573 C819.521,726.583 814.629,728.439 809.509,726.787 C809.815,724.866 809.849,722.794 809.471,720.839 C809.471,720.839 823.056,720.939 823.056,720.939 Z " fill="rgb(42,54,91)"/>
<path d="M829.28,720.532 C829.538,722.83 830.144,724.952 829.911,727.157 C827.958,727.301 824.823,728.069 823.052,727.573 C823.052,727.573 823.056,720.939 823.056,720.939 C823.056,720.939 829.28,720.532 829.28,720.532 Z " fill="rgb(42,56,93)"/>
<path d="M1238.92,720.843 C1238.92,720.843 1238.97,727.057 1238.97,727.057 C1238.97,727.057 1225.02,727.285 1225.02,727.285 C1224.76,724.983 1224.83,722.75 1225.94,720.674 C1227.17,720.931 1228.17,720.558 1230.27,720.614 C1230.27,720.614 1238.92,720.843 1238.92,720.843 Z " fill="rgb(42,54,91)"/>
<path d="M1225.94,720.674 C1224.83,722.75 1224.76,724.983 1225.02,727.285 C1223.05,727.318 1221,727.367 1219.03,727.184 C1219.03,727.184 1219.01,720.782 1219.01,720.782 C1221.3,720.668 1223.74,720.213 1225.94,720.674 Z " fill="rgb(42,56,93)"/>
<path d="M1187.03,720.673 C1187.03,720.673 1186.18,727.41 1186.18,727.41 C1186.18,727.41 1177.98,727.245 1177.98,727.245 C1177.98,727.245 1177.71,720.795 1177.71,720.795 C1177.71,720.795 1187.03,720.673 1187.03,720.673 Z " fill="rgb(46,61,102)"/>
<path d="M1177.71,720.795 C1177.71,720.795 1177.98,727.245 1177.98,727.245 C1177.01,727.225 1175.81,726.88 1174.85,727.139 C1174.85,727.139 1173.9,723.01 1173.9,723.01 C1173.9,723.01 1175.03,720.803 1175.03,720.803 C1175.03,720.803 1177.71,720.795 1177.71,720.795 Z " fill="rgb(46,63,103)"/>
<path d="M870.379,720.886 C869.812,723.044 869.502,725.175 870.102,727.277 C867.342,727.36 864.522,727.445 861.767,727.388 C861.767,727.388 861.734,720.544 861.734,720.544 C861.734,720.544 870.379,720.886 870.379,720.886 Z " fill="rgb(46,61,102)"/>
<path d="M874.057,720.884 C874.057,720.884 873.912,727.163 873.912,727.163 C873.912,727.163 870.102,727.277 870.102,727.277 C869.502,725.175 869.812,723.044 870.379,720.886 C870.379,720.886 874.057,720.884 874.057,720.884 Z " fill="rgb(46,63,103)"/>
<path d="M1175.03,720.803 C1175.03,720.803 1173.9,723.01 1173.9,723.01 C1173.9,723.01 1174.85,727.139 1174.85,727.139 C1171.99,727.916 1168.96,727.171 1165.95,727.232 C1164.93,725.11 1165.16,722.968 1165.66,720.719 C1169.78,720.38 1173.15,720.809 1175.03,720.803 Z " fill="rgb(47,63,105)"/>
<path d="M1155.67,720.612 C1157.42,720.524 1159.34,720.052 1160.95,720.677 C1159.72,722.764 1159.16,724.906 1159.51,727.274 C1158.18,727.461 1156.83,727.967 1155.59,727.098 C1154.77,726.931 1153.33,727.075 1152.49,726.473 C1151.64,724.668 1151.97,722.685 1152.7,720.79 C1153.98,720.888 1154.68,720.662 1155.67,720.612 Z " fill="rgb(48,66,109)"/>
<path d="M1165.66,720.719 C1165.16,722.968 1164.93,725.11 1165.95,727.232 C1164.74,727.256 1163.76,728.357 1162.33,726.431 C1163.14,724.795 1163.06,722.797 1163.03,720.864 C1163.03,720.864 1164.48,720.236 1164.48,720.236 C1164.99,720.012 1165.37,720.57 1165.66,720.719 Z " fill="rgb(48,64,106)"/>
<path d="M1163.03,720.864 C1163.06,722.797 1163.14,724.795 1162.33,726.431 C1162.67,727.357 1161.93,727.786 1161.48,727.876 C1160.68,728.034 1159.9,727.431 1159.51,727.274 C1159.16,724.906 1159.72,722.764 1160.95,720.677 C1161.64,720.947 1162.31,721.179 1163.03,720.864 Z " fill="rgb(48,65,108)"/>
<path d="M881.614,720.978 C882.631,722.989 882.425,725.093 881.902,727.222 C879.149,727.814 876.498,727.085 873.912,727.163 C873.912,727.163 874.057,720.884 874.057,720.884 C876.349,720.59 879.235,719.864 881.614,720.978 Z " fill="rgb(47,63,105)"/>
<path d="M892.33,720.731 C893.696,721.047 894.556,720.534 895.869,720.396 C896.343,722.565 896.446,724.831 895.991,727.131 C894.886,726.7 893.543,727.125 892.449,727.151 C891.136,727.182 889.251,727.671 888.077,727.361 C888.077,727.361 888.042,720.691 888.042,720.691 C889.198,720.699 891.256,720.483 892.33,720.731 Z " fill="rgb(48,66,109)"/>
<path d="M885.907,720.973 C885.907,720.973 885.911,727.017 885.911,727.017 C884.444,728.618 883.013,726.983 881.902,727.222 C882.425,725.093 882.631,722.989 881.614,720.978 C882.867,720.662 884.552,720.43 885.907,720.973 Z " fill="rgb(48,64,106)"/>
<path d="M888.042,720.691 C888.042,720.691 888.077,727.361 888.077,727.361 C887.562,727.176 886.326,726.564 885.911,727.017 C885.911,727.017 885.907,720.973 885.907,720.973 C886.769,721.318 887.501,720.688 888.042,720.691 Z " fill="rgb(48,65,108)"/>
<path d="M1026.84,859.208 C1026.84,859.208 1027.07,866.726 1027.07,866.726 C1027.08,867.213 1026.79,868.169 1027.03,868.589 C1024.66,869.209 1022.19,869.014 1019.8,869.018 C1019.8,869.018 1019.4,866.239 1019.4,866.239 C1019.4,866.239 1019.82,858.794 1019.82,858.794 C1022.08,858.102 1024.51,857.956 1026.84,859.208 Z " fill="rgb(45,60,100)"/>
<path d="M1026.71,872.648 C1026.71,872.648 1026.93,881.798 1026.93,881.798 C1024.68,881.795 1022.2,881.133 1020.17,882.115 C1019.01,878.737 1020.4,875.32 1020.07,871.887 C1022.23,872.014 1024.55,871.636 1026.71,872.648 Z " fill="rgb(43,58,96)"/>
<path d="M1026.93,881.798 C1026.96,883.244 1027.05,884.378 1027.03,885.79 C1027.03,885.79 1026.98,889.329 1026.98,889.329 C1026.98,889.329 1020.29,889.409 1020.29,889.409 C1019.87,888.262 1019.79,887.105 1020.08,885.977 C1020.42,884.699 1020.63,883.434 1020.17,882.115 C1022.2,881.133 1024.68,881.795 1026.93,881.798 Z " fill="rgb(43,57,94)"/>
<path d="M1027.03,868.589 C1027.87,870.023 1026.68,871.503 1026.71,872.648 C1024.55,871.636 1022.23,872.014 1020.07,871.887 C1020.07,871.887 1019.8,869.018 1019.8,869.018 C1022.19,869.014 1024.66,869.209 1027.03,868.589 Z " fill="rgb(45,59,98)"/>
<path d="M1026.37,527.105 C1026.37,527.105 1026.39,540.018 1026.39,540.018 C1024.21,540.542 1022.04,539.833 1020.17,538.383 C1020.17,538.383 1020.56,531.11 1020.56,531.11 C1020.63,529.701 1020.37,528.061 1020.72,527.307 C1022.63,527.651 1024.42,527.535 1026.37,527.105 Z " fill="rgb(42,54,91)"/>
<path d="M1026.39,540.018 C1026.4,541.556 1026,543.329 1026.66,544.716 C1026.66,544.716 1020,544.994 1020,544.994 C1020,544.994 1020.17,538.383 1020.17,538.383 C1022.04,539.833 1024.21,540.542 1026.39,540.018 Z " fill="rgb(42,56,93)"/>
<path d="M1027,894.139 C1027.02,901.173 1025.89,904.743 1026,907.004 C1026,907.004 1019.96,906.964 1019.96,906.964 C1019.96,906.964 1020.11,894.346 1020.11,894.346 C1020.11,894.346 1027,894.139 1027,894.139 Z " fill="rgb(42,54,91)"/>
<path d="M1026.98,889.329 C1026.98,889.329 1027,894.139 1027,894.139 C1027,894.139 1020.11,894.346 1020.11,894.346 C1020.13,892.771 1018.36,890.818 1020.29,889.409 C1020.29,889.409 1026.98,889.329 1026.98,889.329 Z " fill="rgb(42,56,93)"/>
<path d="M903.72,721.005 C904.329,723.037 904.838,725.224 903.937,727.289 C901.185,727.66 898.704,728.187 895.991,727.131 C896.446,724.831 896.343,722.565 895.869,720.396 C898.521,720.118 901.23,720.123 903.72,721.005 Z " fill="rgb(49,67,111)"/>
<path d="M907.35,719.82 C907.35,719.82 907.727,727.46 907.727,727.46 C906.619,727.227 905.056,727.139 903.937,727.289 C904.838,725.224 904.329,723.037 903.72,721.005 C903.02,719.467 904.098,719.855 904.657,719.774 C905.381,719.669 906.902,719.499 907.35,719.82 Z " fill="rgb(50,69,113)"/>
<path d="M1152.7,720.79 C1151.97,722.685 1151.64,724.668 1152.49,726.473 C1150.12,728.626 1147.15,727.155 1144.52,727.14 C1144.11,724.745 1143.83,722.196 1145.34,720.228 C1145.34,720.228 1152.7,720.79 1152.7,720.79 Z " fill="rgb(49,67,111)"/>
<path d="M1145.34,720.228 C1143.83,722.196 1144.11,724.745 1144.52,727.14 C1144.52,727.14 1140.99,727.121 1140.99,727.121 C1140.7,724.716 1140.58,722.256 1141.02,719.918 C1142.64,719.81 1143.66,720.1 1145.34,720.228 Z " fill="rgb(50,69,113)"/>
<path d="M1026.94,573.518 C1026.94,573.518 1027.06,581.511 1027.06,581.511 C1024.59,580.767 1022.19,580.99 1019.66,581.003 C1019.49,578.597 1020.22,575.604 1020.16,573.457 C1022.59,573.112 1024.71,573.555 1026.94,573.518 Z " fill="rgb(46,61,102)"/>
<path d="M1027.06,581.511 C1027.07,582.447 1026.96,583.72 1026.95,584.683 C1026.95,584.683 1019.94,585.061 1019.94,585.061 C1019.94,585.061 1019.66,581.003 1019.66,581.003 C1022.19,580.99 1024.59,580.767 1027.06,581.511 Z " fill="rgb(46,63,103)"/>
<path d="M1027.23,852.787 C1027.23,852.787 1026.84,859.208 1026.84,859.208 C1024.51,857.956 1022.08,858.102 1019.82,858.794 C1019.82,858.794 1019.68,852.801 1019.68,852.801 C1022.27,852.035 1024.58,852.437 1027.23,852.787 Z " fill="rgb(46,61,102)"/>
<path d="M1027.05,849.15 C1027.05,849.15 1027.23,852.787 1027.23,852.787 C1024.58,852.437 1022.27,852.035 1019.68,852.801 C1019.68,852.801 1019.9,849.061 1019.9,849.061 C1019.9,849.061 1027.05,849.15 1027.05,849.15 Z " fill="rgb(46,63,103)"/>
<path d="M1027.03,596.052 C1027.2,597.453 1027.23,598.609 1027,599.996 C1026.88,600.781 1026.93,601.773 1027.14,602.54 C1024.84,603.164 1022.44,603.393 1020.22,602.396 C1020.22,602.396 1019.99,601 1019.99,601 C1019.7,599.29 1019.52,597.707 1019.95,596 C1022.05,597.522 1024.88,597.527 1027.03,596.052 Z " fill="rgb(48,66,109)"/>
<path d="M1026.95,584.683 C1026.95,584.683 1026.93,590.595 1026.93,590.595 C1024.78,589.078 1022.23,589.41 1019.77,589.598 C1020.01,588.35 1020.02,586.213 1019.94,585.061 C1019.94,585.061 1026.95,584.683 1026.95,584.683 Z " fill="rgb(47,63,105)"/>
<path d="M1026.93,590.595 C1026.93,591.659 1028.55,593.424 1026.87,594.68 C1024.52,595.283 1021.97,595.389 1019.83,594.01 C1019.17,592.477 1019.47,591.16 1019.77,589.598 C1022.23,589.41 1024.78,589.078 1026.93,590.595 Z " fill="rgb(48,64,106)"/>
<path d="M1026.87,594.68 C1026.87,594.68 1027.03,596.052 1027.03,596.052 C1024.88,597.527 1022.05,597.522 1019.95,596 C1020.11,595.352 1020.09,594.613 1019.83,594.01 C1021.97,595.389 1024.52,595.283 1026.87,594.68 Z " fill="rgb(48,65,108)"/>
<path d="M1027.1,830.725 C1026.59,831.828 1027.41,832.633 1027.4,833.298 C1027.4,833.298 1027.15,837.972 1027.15,837.972 C1024.55,837.89 1022.27,836.458 1019.59,836.981 C1019.03,836.39 1019.14,835.007 1019.32,834.33 C1019.85,833.497 1020.17,832.613 1020.28,831.635 C1022.04,829.928 1024.78,830.465 1027.1,830.725 Z " fill="rgb(48,66,109)"/>
<path d="M1027.09,843.947 C1027.03,845.862 1026.96,847.244 1027.05,849.15 C1027.05,849.15 1019.9,849.061 1019.9,849.061 C1019.9,849.061 1019.9,843.279 1019.9,843.279 C1022.36,843.121 1024.9,842.703 1027.09,843.947 Z " fill="rgb(47,63,105)"/>
<path d="M1027.23,840.025 C1027.23,840.025 1027.09,843.947 1027.09,843.947 C1024.9,842.703 1022.36,843.121 1019.9,843.279 C1019.9,841.67 1018.84,840.805 1019.94,839.097 C1022.43,838.816 1025,838.589 1027.23,840.025 Z " fill="rgb(48,64,106)"/>
<path d="M1027.15,837.972 C1027.11,838.726 1027.25,839.316 1027.23,840.025 C1025,838.589 1022.43,838.816 1019.94,839.097 C1020.3,838.531 1020.08,837.502 1019.59,836.981 C1022.27,836.458 1024.55,837.89 1027.15,837.972 Z " fill="rgb(48,65,108)"/>
<path d="M1027.11,824.093 C1027.24,826.247 1028.03,828.728 1027.1,830.725 C1024.78,830.465 1022.04,829.928 1020.28,831.635 C1018.52,829.692 1019.89,827.181 1019.91,823.922 C1019.91,823.922 1027.11,824.093 1027.11,824.093 Z " fill="rgb(49,67,111)"/>
<path d="M1027.14,602.54 C1027.82,605.002 1027.6,607.982 1027.04,610.474 C1024.36,610.654 1021.84,611.384 1019.11,610.987 C1019.44,608.345 1018.8,604.758 1020.22,602.396 C1022.44,603.393 1024.84,603.164 1027.14,602.54 Z " fill="rgb(49,67,111)"/>
<path d="M1027.04,610.474 C1026.87,611.273 1027.04,612.195 1027.07,613.005 C1027.07,613.005 1019.93,613.057 1019.93,613.057 C1019.93,613.057 1019.11,610.987 1019.11,610.987 C1021.84,611.384 1024.36,610.654 1027.04,610.474 Z " fill="rgb(50,69,113)"/>
</svg>